<svg width="393" height="852" viewBox="0 0 393 852" fill="none" xmlns="http://www.w3.org/2000/svg">
<g clip-path="url(#clip0_1388_2121)">
<rect width="393" height="852" rx="40" fill="#CCEFEB"/>
<circle cx="36" cy="80" r="20" fill="#98DDD8"/>
<path d="M39.5 73L32 80.5L39.5 88" stroke="black" stroke-width="1.82672" stroke-linecap="round" stroke-linejoin="round"/>
<path d="M79.816 83.244V81.58H85.144V83.244H79.816ZM85.656 85.5L82.824 77.852L82.424 76.46H82.584L82.184 77.852L79.352 85.5H77.192L81.288 74.62H83.832L87.928 85.5H85.656ZM90.5466 79.228C90.5466 79.516 90.6426 79.7347 90.8346 79.884C91.0266 80.0333 91.2826 80.1507 91.6026 80.236C91.9333 80.3107 92.2906 80.38 92.6746 80.444C93.0586 80.4973 93.4426 80.572 93.8266 80.668C94.2106 80.764 94.5626 80.8973 94.8826 81.068C95.2026 81.2387 95.4586 81.4733 95.6506 81.772C95.8533 82.0707 95.9546 82.4707 95.9546 82.972C95.9546 83.516 95.7946 83.996 95.4746 84.412C95.1653 84.828 94.7386 85.1533 94.1946 85.388C93.6506 85.6227 93.016 85.74 92.2906 85.74C91.2346 85.74 90.3493 85.4947 89.6346 85.004C88.9306 84.5027 88.504 83.7347 88.3546 82.7H90.4026C90.4773 83.1587 90.6853 83.516 91.0266 83.772C91.3786 84.028 91.8213 84.156 92.3546 84.156C92.8666 84.156 93.2506 84.06 93.5066 83.868C93.7626 83.6653 93.8906 83.4093 93.8906 83.1C93.8906 82.8227 93.7946 82.6093 93.6026 82.46C93.4106 82.3107 93.1546 82.1987 92.8346 82.124C92.5253 82.0493 92.1786 81.98 91.7946 81.916C91.4213 81.852 91.048 81.7773 90.6746 81.692C90.3013 81.596 89.9546 81.4627 89.6346 81.292C89.3253 81.1107 89.0746 80.8707 88.8826 80.572C88.6906 80.2627 88.5946 79.8573 88.5946 79.356C88.5946 78.8867 88.7173 78.4547 88.9626 78.06C89.208 77.6547 89.576 77.324 90.0666 77.068C90.5573 76.812 91.176 76.684 91.9226 76.684C92.584 76.684 93.176 76.7907 93.6986 77.004C94.2213 77.2173 94.6533 77.548 94.9946 77.996C95.3466 78.444 95.56 79.0253 95.6346 79.74H93.5866C93.5013 79.2173 93.3093 78.844 93.0106 78.62C92.7226 78.396 92.3333 78.284 91.8426 78.284C91.4373 78.284 91.1173 78.3747 90.8826 78.556C90.6586 78.7373 90.5466 78.9613 90.5466 79.228ZM99.0623 79.228C99.0623 79.516 99.1583 79.7347 99.3503 79.884C99.5423 80.0333 99.7983 80.1507 100.118 80.236C100.449 80.3107 100.806 80.38 101.19 80.444C101.574 80.4973 101.958 80.572 102.342 80.668C102.726 80.764 103.078 80.8973 103.398 81.068C103.718 81.2387 103.974 81.4733 104.166 81.772C104.369 82.0707 104.47 82.4707 104.47 82.972C104.47 83.516 104.31 83.996 103.99 84.412C103.681 84.828 103.254 85.1533 102.71 85.388C102.166 85.6227 101.532 85.74 100.806 85.74C99.7503 85.74 98.8649 85.4947 98.1503 85.004C97.4463 84.5027 97.0196 83.7347 96.8703 82.7H98.9183C98.9929 83.1587 99.2009 83.516 99.5423 83.772C99.8943 84.028 100.337 84.156 100.87 84.156C101.382 84.156 101.766 84.06 102.022 83.868C102.278 83.6653 102.406 83.4093 102.406 83.1C102.406 82.8227 102.31 82.6093 102.118 82.46C101.926 82.3107 101.67 82.1987 101.35 82.124C101.041 82.0493 100.694 81.98 100.31 81.916C99.9369 81.852 99.5636 81.7773 99.1903 81.692C98.8169 81.596 98.4703 81.4627 98.1503 81.292C97.8409 81.1107 97.5903 80.8707 97.3983 80.572C97.2063 80.2627 97.1103 79.8573 97.1103 79.356C97.1103 78.8867 97.2329 78.4547 97.4783 78.06C97.7236 77.6547 98.0916 77.324 98.5823 77.068C99.0729 76.812 99.6916 76.684 100.438 76.684C101.1 76.684 101.692 76.7907 102.214 77.004C102.737 77.2173 103.169 77.548 103.51 77.996C103.862 78.444 104.076 79.0253 104.15 79.74H102.102C102.017 79.2173 101.825 78.844 101.526 78.62C101.238 78.396 100.849 78.284 100.358 78.284C99.9529 78.284 99.6329 78.3747 99.3983 78.556C99.1743 78.7373 99.0623 78.9613 99.0623 79.228ZM112.73 80.348L111.546 81.18C111.546 80.2733 111.375 79.58 111.034 79.1C110.693 78.6093 110.202 78.364 109.562 78.364C108.911 78.364 108.415 78.6093 108.074 79.1C107.733 79.5907 107.562 80.3 107.562 81.228C107.562 82.1347 107.738 82.8333 108.09 83.324C108.453 83.8147 108.97 84.06 109.642 84.06C110.122 84.06 110.522 83.948 110.842 83.724C111.173 83.5 111.402 83.1587 111.53 82.7H113.69C113.455 83.692 112.975 84.4493 112.25 84.972C111.535 85.484 110.666 85.74 109.642 85.74C108.789 85.74 108.047 85.5587 107.418 85.196C106.789 84.8333 106.303 84.316 105.962 83.644C105.631 82.9613 105.466 82.156 105.466 81.228C105.466 80.2573 105.631 79.436 105.962 78.764C106.303 78.0813 106.783 77.564 107.402 77.212C108.021 76.86 108.741 76.684 109.562 76.684C110.394 76.684 111.114 76.8653 111.722 77.228C112.33 77.5907 112.799 78.1027 113.13 78.764C113.461 79.4253 113.626 80.22 113.626 81.148V81.628H106.314V80.348H112.73ZM116.875 79.228C116.875 79.516 116.971 79.7347 117.163 79.884C117.355 80.0333 117.611 80.1507 117.931 80.236C118.261 80.3107 118.619 80.38 119.003 80.444C119.387 80.4973 119.771 80.572 120.155 80.668C120.539 80.764 120.891 80.8973 121.211 81.068C121.531 81.2387 121.787 81.4733 121.979 81.772C122.181 82.0707 122.283 82.4707 122.283 82.972C122.283 83.516 122.123 83.996 121.803 84.412C121.493 84.828 121.067 85.1533 120.523 85.388C119.979 85.6227 119.344 85.74 118.619 85.74C117.563 85.74 116.677 85.4947 115.963 85.004C115.259 84.5027 114.832 83.7347 114.683 82.7H116.731C116.805 83.1587 117.013 83.516 117.355 83.772C117.707 84.028 118.149 84.156 118.683 84.156C119.195 84.156 119.579 84.06 119.835 83.868C120.091 83.6653 120.219 83.4093 120.219 83.1C120.219 82.8227 120.123 82.6093 119.931 82.46C119.739 82.3107 119.483 82.1987 119.163 82.124C118.853 82.0493 118.507 81.98 118.123 81.916C117.749 81.852 117.376 81.7773 117.003 81.692C116.629 81.596 116.283 81.4627 115.963 81.292C115.653 81.1107 115.403 80.8707 115.211 80.572C115.019 80.2627 114.923 79.8573 114.923 79.356C114.923 78.8867 115.045 78.4547 115.291 78.06C115.536 77.6547 115.904 77.324 116.395 77.068C116.885 76.812 117.504 76.684 118.251 76.684C118.912 76.684 119.504 76.7907 120.027 77.004C120.549 77.2173 120.981 77.548 121.323 77.996C121.675 78.444 121.888 79.0253 121.963 79.74H119.915C119.829 79.2173 119.637 78.844 119.339 78.62C119.051 78.396 118.661 78.284 118.171 78.284C117.765 78.284 117.445 78.3747 117.211 78.556C116.987 78.7373 116.875 78.9613 116.875 79.228ZM125.39 79.228C125.39 79.516 125.486 79.7347 125.678 79.884C125.87 80.0333 126.126 80.1507 126.446 80.236C126.777 80.3107 127.134 80.38 127.518 80.444C127.902 80.4973 128.286 80.572 128.67 80.668C129.054 80.764 129.406 80.8973 129.726 81.068C130.046 81.2387 130.302 81.4733 130.494 81.772C130.697 82.0707 130.798 82.4707 130.798 82.972C130.798 83.516 130.638 83.996 130.318 84.412C130.009 84.828 129.582 85.1533 129.038 85.388C128.494 85.6227 127.86 85.74 127.134 85.74C126.078 85.74 125.193 85.4947 124.478 85.004C123.774 84.5027 123.348 83.7347 123.198 82.7H125.246C125.321 83.1587 125.529 83.516 125.87 83.772C126.222 84.028 126.665 84.156 127.198 84.156C127.71 84.156 128.094 84.06 128.35 83.868C128.606 83.6653 128.734 83.4093 128.734 83.1C128.734 82.8227 128.638 82.6093 128.446 82.46C128.254 82.3107 127.998 82.1987 127.678 82.124C127.369 82.0493 127.022 81.98 126.638 81.916C126.265 81.852 125.892 81.7773 125.518 81.692C125.145 81.596 124.798 81.4627 124.478 81.292C124.169 81.1107 123.918 80.8707 123.726 80.572C123.534 80.2627 123.438 79.8573 123.438 79.356C123.438 78.8867 123.561 78.4547 123.806 78.06C124.052 77.6547 124.42 77.324 124.91 77.068C125.401 76.812 126.02 76.684 126.766 76.684C127.428 76.684 128.02 76.7907 128.542 77.004C129.065 77.2173 129.497 77.548 129.838 77.996C130.19 78.444 130.404 79.0253 130.478 79.74H128.43C128.345 79.2173 128.153 78.844 127.854 78.62C127.566 78.396 127.177 78.284 126.686 78.284C126.281 78.284 125.961 78.3747 125.726 78.556C125.502 78.7373 125.39 78.9613 125.39 79.228ZM132.194 85.5V76.924H134.242V85.5H132.194ZM134.242 80.524H133.586C133.639 79.66 133.799 78.9453 134.066 78.38C134.333 77.8147 134.685 77.3933 135.122 77.116C135.559 76.828 136.061 76.684 136.626 76.684C137.159 76.684 137.623 76.8013 138.018 77.036C138.423 77.26 138.738 77.6013 138.962 78.06C139.186 78.5187 139.298 79.0947 139.298 79.788V85.5H137.25V80.204C137.25 79.8093 137.202 79.4787 137.106 79.212C137.01 78.9347 136.861 78.7267 136.658 78.588C136.455 78.4493 136.205 78.38 135.906 78.38C135.65 78.38 135.421 78.4387 135.218 78.556C135.015 78.6627 134.839 78.8173 134.69 79.02C134.541 79.212 134.429 79.4413 134.354 79.708C134.279 79.964 134.242 80.236 134.242 80.524ZM139.298 80.524H138.354C138.407 79.66 138.573 78.9453 138.85 78.38C139.138 77.8147 139.517 77.3933 139.986 77.116C140.455 76.828 140.989 76.684 141.586 76.684C142.13 76.684 142.61 76.8013 143.026 77.036C143.453 77.26 143.778 77.6013 144.002 78.06C144.237 78.5187 144.354 79.0947 144.354 79.788V85.5H142.306V80.204C142.306 79.8093 142.258 79.4787 142.162 79.212C142.066 78.9347 141.917 78.7267 141.714 78.588C141.522 78.4493 141.271 78.38 140.962 78.38C140.706 78.38 140.477 78.4387 140.274 78.556C140.071 78.6627 139.895 78.8173 139.746 79.02C139.597 79.212 139.485 79.4413 139.41 79.708C139.335 79.964 139.298 80.236 139.298 80.524ZM153.105 80.348L151.921 81.18C151.921 80.2733 151.75 79.58 151.409 79.1C151.068 78.6093 150.577 78.364 149.937 78.364C149.286 78.364 148.79 78.6093 148.449 79.1C148.108 79.5907 147.937 80.3 147.937 81.228C147.937 82.1347 148.113 82.8333 148.465 83.324C148.828 83.8147 149.345 84.06 150.017 84.06C150.497 84.06 150.897 83.948 151.217 83.724C151.548 83.5 151.777 83.1587 151.905 82.7H154.065C153.83 83.692 153.35 84.4493 152.625 84.972C151.91 85.484 151.041 85.74 150.017 85.74C149.164 85.74 148.422 85.5587 147.793 85.196C147.164 84.8333 146.678 84.316 146.337 83.644C146.006 82.9613 145.841 82.156 145.841 81.228C145.841 80.2573 146.006 79.436 146.337 78.764C146.678 78.0813 147.158 77.564 147.777 77.212C148.396 76.86 149.116 76.684 149.937 76.684C150.769 76.684 151.489 76.8653 152.097 77.228C152.705 77.5907 153.174 78.1027 153.505 78.764C153.836 79.4253 154.001 80.22 154.001 81.148V81.628H146.689V80.348H153.105ZM155.538 85.5V76.924H157.586V85.5H155.538ZM157.586 80.524H156.93C156.983 79.66 157.148 78.9453 157.426 78.38C157.703 77.8147 158.071 77.3933 158.53 77.116C158.999 76.828 159.532 76.684 160.13 76.684C160.706 76.684 161.207 76.8013 161.634 77.036C162.071 77.26 162.407 77.6013 162.642 78.06C162.887 78.5187 163.01 79.0947 163.01 79.788V85.5H160.962V80.204C160.962 79.8093 160.903 79.4787 160.786 79.212C160.679 78.9347 160.514 78.7267 160.29 78.588C160.066 78.4493 159.778 78.38 159.426 78.38C159.148 78.38 158.892 78.4387 158.658 78.556C158.434 78.6627 158.242 78.8173 158.082 79.02C157.922 79.212 157.799 79.4413 157.714 79.708C157.628 79.964 157.586 80.236 157.586 80.524ZM165.169 82.828V74.956H167.217V82.652C167.217 83.1 167.308 83.4413 167.489 83.676C167.67 83.9107 168.044 84.028 168.609 84.028H168.993V85.532C168.886 85.596 168.721 85.644 168.497 85.676C168.273 85.7187 168.022 85.74 167.745 85.74C166.87 85.74 166.22 85.4947 165.793 85.004C165.377 84.5133 165.169 83.788 165.169 82.828ZM164.065 78.508V76.924H169.025V78.508H164.065Z" fill="#191919"/>
<rect x="289" y="64" width="87" height="32" rx="16" fill="#98DDD8"/>
<path d="M319.767 84H318.147V78.144C318.091 78.144 318.027 78.144 317.955 78.144C317.891 78.144 317.815 78.144 317.727 78.144H316.707V76.992H317.379C317.787 76.992 318.059 76.944 318.195 76.848C318.339 76.752 318.411 76.6 318.411 76.392V76.284H319.767V84ZM316.707 84V82.824H321.207V84H316.707ZM329.026 84.18C328.21 84.18 327.502 84.008 326.902 83.664C326.302 83.32 325.838 82.832 325.51 82.2C325.19 81.56 325.03 80.804 325.03 79.932C325.03 79.052 325.19 78.296 325.51 77.664C325.838 77.024 326.302 76.532 326.902 76.188C327.502 75.836 328.21 75.66 329.026 75.66C329.85 75.66 330.562 75.836 331.162 76.188C331.762 76.532 332.222 77.024 332.542 77.664C332.87 78.296 333.034 79.052 333.034 79.932C333.034 80.804 332.87 81.56 332.542 82.2C332.222 82.832 331.762 83.32 331.162 83.664C330.562 84.008 329.85 84.18 329.026 84.18ZM329.026 82.836C329.522 82.836 329.942 82.72 330.286 82.488C330.638 82.256 330.906 81.924 331.09 81.492C331.282 81.052 331.378 80.532 331.378 79.932C331.378 79.324 331.282 78.804 331.09 78.372C330.906 77.932 330.638 77.596 330.286 77.364C329.942 77.124 329.522 77.004 329.026 77.004C328.538 77.004 328.118 77.124 327.766 77.364C327.414 77.596 327.146 77.932 326.962 78.372C326.778 78.804 326.686 79.324 326.686 79.932C326.686 80.532 326.778 81.052 326.962 81.492C327.146 81.924 327.414 82.256 327.766 82.488C328.118 82.72 328.538 82.836 329.026 82.836ZM334.365 84V75.84H335.985V84H334.365ZM335.541 77.124V75.84H340.101V77.124H335.541ZM335.541 80.712V79.428H339.645V80.712H335.541ZM349.059 78.516C349.059 78.876 348.983 79.192 348.831 79.464C348.687 79.736 348.491 79.98 348.243 80.196C347.995 80.404 347.723 80.596 347.427 80.772C347.139 80.948 346.847 81.124 346.551 81.3C346.263 81.476 345.995 81.664 345.747 81.864C345.499 82.056 345.299 82.28 345.147 82.536C345.003 82.792 344.931 83.088 344.931 83.424L343.419 83.616C343.419 83.12 343.491 82.696 343.635 82.344C343.787 81.984 343.983 81.676 344.223 81.42C344.471 81.156 344.739 80.928 345.027 80.736C345.315 80.544 345.603 80.372 345.891 80.22C346.187 80.06 346.455 79.9 346.695 79.74C346.943 79.58 347.139 79.404 347.283 79.212C347.435 79.02 347.511 78.792 347.511 78.528C347.511 78.168 347.407 77.888 347.199 77.688C346.999 77.48 346.707 77.376 346.323 77.376C345.907 77.376 345.587 77.484 345.363 77.7C345.147 77.908 345.011 78.196 344.955 78.564H343.383C343.455 78.052 343.619 77.616 343.875 77.256C344.131 76.888 344.467 76.604 344.883 76.404C345.299 76.204 345.783 76.104 346.335 76.104C346.935 76.104 347.435 76.212 347.835 76.428C348.243 76.644 348.547 76.936 348.747 77.304C348.955 77.664 349.059 78.068 349.059 78.516ZM343.419 84V83.616L344.631 82.824H349.083V84H343.419Z" fill="#191919"/>
<path d="M90.644 152H84.0517V131.636H90.8528C92.8481 131.636 94.5616 132.044 95.9934 132.859C97.4252 133.668 98.5223 134.831 99.2846 136.349C100.054 137.861 100.438 139.674 100.438 141.788C100.438 143.91 100.05 145.732 99.2747 147.257C98.5057 148.782 97.3921 149.955 95.9338 150.777C94.4754 151.592 92.7122 152 90.644 152ZM87.1241 149.315H90.475C92.0261 149.315 93.3154 149.024 94.3429 148.44C95.3703 147.85 96.1393 146.999 96.6497 145.885C97.1601 144.765 97.4153 143.399 97.4153 141.788C97.4153 140.191 97.1601 138.835 96.6497 137.722C96.1459 136.608 95.3935 135.763 94.3926 135.186C93.3916 134.609 92.1487 134.321 90.6639 134.321H87.1241V149.315ZM110.453 152.308C109.021 152.308 107.772 151.98 106.705 151.324C105.637 150.668 104.809 149.75 104.219 148.57C103.629 147.39 103.334 146.011 103.334 144.433C103.334 142.849 103.629 141.464 104.219 140.277C104.809 139.09 105.637 138.169 106.705 137.513C107.772 136.857 109.021 136.528 110.453 136.528C111.885 136.528 113.135 136.857 114.202 137.513C115.269 138.169 116.098 139.09 116.688 140.277C117.278 141.464 117.573 142.849 117.573 144.433C117.573 146.011 117.278 147.39 116.688 148.57C116.098 149.75 115.269 150.668 114.202 151.324C113.135 151.98 111.885 152.308 110.453 152.308ZM110.463 149.812C111.391 149.812 112.16 149.567 112.77 149.077C113.38 148.586 113.831 147.933 114.122 147.118C114.421 146.303 114.57 145.404 114.57 144.423C114.57 143.449 114.421 142.554 114.122 141.739C113.831 140.917 113.38 140.257 112.77 139.76C112.16 139.263 111.391 139.014 110.463 139.014C109.529 139.014 108.753 139.263 108.137 139.76C107.527 140.257 107.073 140.917 106.774 141.739C106.483 142.554 106.337 143.449 106.337 144.423C106.337 145.404 106.483 146.303 106.774 147.118C107.073 147.933 107.527 148.586 108.137 149.077C108.753 149.567 109.529 149.812 110.463 149.812ZM130.181 157.727C129.736 157.727 129.332 157.691 128.968 157.618C128.603 157.552 128.331 157.479 128.152 157.399L128.868 154.963C129.412 155.109 129.896 155.172 130.32 155.152C130.744 155.132 131.119 154.973 131.443 154.675C131.775 154.376 132.066 153.889 132.318 153.213L132.686 152.199L127.098 136.727H130.28L134.148 148.58H134.307L138.175 136.727H141.367L135.073 154.038C134.781 154.834 134.41 155.507 133.959 156.057C133.508 156.614 132.971 157.031 132.348 157.31C131.725 157.588 131.003 157.727 130.181 157.727ZM150.074 152.308C148.643 152.308 147.393 151.98 146.326 151.324C145.259 150.668 144.43 149.75 143.84 148.57C143.25 147.39 142.955 146.011 142.955 144.433C142.955 142.849 143.25 141.464 143.84 140.277C144.43 139.09 145.259 138.169 146.326 137.513C147.393 136.857 148.643 136.528 150.074 136.528C151.506 136.528 152.756 136.857 153.823 137.513C154.89 138.169 155.719 139.09 156.309 140.277C156.899 141.464 157.194 142.849 157.194 144.433C157.194 146.011 156.899 147.39 156.309 148.57C155.719 149.75 154.89 150.668 153.823 151.324C152.756 151.98 151.506 152.308 150.074 152.308ZM150.084 149.812C151.012 149.812 151.781 149.567 152.391 149.077C153.001 148.586 153.452 147.933 153.743 147.118C154.042 146.303 154.191 145.404 154.191 144.423C154.191 143.449 154.042 142.554 153.743 141.739C153.452 140.917 153.001 140.257 152.391 139.76C151.781 139.263 151.012 139.014 150.084 139.014C149.15 139.014 148.374 139.263 147.758 139.76C147.148 140.257 146.694 140.917 146.395 141.739C146.104 142.554 145.958 143.449 145.958 144.423C145.958 145.404 146.104 146.303 146.395 147.118C146.694 147.933 147.148 148.586 147.758 149.077C148.374 149.567 149.15 149.812 150.084 149.812ZM170.187 145.666V136.727H173.17V152H170.247V149.355H170.088C169.736 150.17 169.173 150.85 168.397 151.393C167.628 151.93 166.67 152.199 165.524 152.199C164.543 152.199 163.674 151.983 162.919 151.553C162.169 151.115 161.579 150.469 161.149 149.614C160.724 148.759 160.512 147.701 160.512 146.442V136.727H163.485V146.084C163.485 147.125 163.774 147.953 164.35 148.57C164.927 149.186 165.676 149.494 166.597 149.494C167.154 149.494 167.708 149.355 168.258 149.077C168.815 148.798 169.276 148.377 169.64 147.814C170.011 147.25 170.194 146.535 170.187 145.666ZM191.843 136.727V139.114H183.213V136.727H191.843ZM185.579 152V134.957C185.579 134.003 185.788 133.211 186.205 132.581C186.623 131.945 187.177 131.471 187.866 131.159C188.555 130.841 189.304 130.682 190.113 130.682C190.71 130.682 191.22 130.732 191.644 130.831C192.069 130.924 192.383 131.01 192.589 131.089L191.893 133.496C191.754 133.456 191.575 133.41 191.356 133.357C191.137 133.297 190.872 133.267 190.561 133.267C189.838 133.267 189.321 133.446 189.009 133.804C188.704 134.162 188.552 134.679 188.552 135.355V152H185.579ZM200.892 152.308C199.387 152.308 198.091 151.987 197.004 151.344C195.923 150.694 195.088 149.783 194.498 148.609C193.915 147.429 193.623 146.047 193.623 144.463C193.623 142.899 193.915 141.52 194.498 140.327C195.088 139.134 195.91 138.202 196.964 137.533C198.025 136.863 199.264 136.528 200.683 136.528C201.544 136.528 202.38 136.671 203.188 136.956C203.997 137.241 204.723 137.688 205.366 138.298C206.009 138.908 206.516 139.7 206.887 140.675C207.258 141.643 207.444 142.819 207.444 144.205V145.259H195.303V143.031H204.531C204.531 142.249 204.372 141.556 204.053 140.953C203.735 140.343 203.288 139.863 202.711 139.511C202.141 139.16 201.472 138.984 200.703 138.984C199.867 138.984 199.138 139.19 198.515 139.601C197.899 140.005 197.421 140.536 197.083 141.192C196.752 141.841 196.586 142.547 196.586 143.31V145.05C196.586 146.071 196.765 146.939 197.123 147.655C197.488 148.371 197.995 148.918 198.644 149.295C199.294 149.667 200.053 149.852 200.921 149.852C201.485 149.852 201.999 149.773 202.463 149.614C202.927 149.448 203.328 149.203 203.666 148.878C204.004 148.553 204.262 148.152 204.441 147.675L207.255 148.182C207.03 149.01 206.625 149.736 206.042 150.359C205.465 150.976 204.74 151.456 203.865 151.801C202.996 152.139 202.005 152.308 200.892 152.308ZM217.325 152.308C215.82 152.308 214.524 151.987 213.437 151.344C212.357 150.694 211.522 149.783 210.932 148.609C210.348 147.429 210.057 146.047 210.057 144.463C210.057 142.899 210.348 141.52 210.932 140.327C211.522 139.134 212.344 138.202 213.398 137.533C214.458 136.863 215.698 136.528 217.116 136.528C217.978 136.528 218.813 136.671 219.622 136.956C220.431 137.241 221.157 137.688 221.8 138.298C222.443 138.908 222.95 139.7 223.321 140.675C223.692 141.643 223.878 142.819 223.878 144.205V145.259H211.737V143.031H220.964C220.964 142.249 220.805 141.556 220.487 140.953C220.169 140.343 219.721 139.863 219.145 139.511C218.575 139.16 217.905 138.984 217.136 138.984C216.301 138.984 215.572 139.19 214.949 139.601C214.332 140.005 213.855 140.536 213.517 141.192C213.185 141.841 213.02 142.547 213.02 143.31V145.05C213.02 146.071 213.199 146.939 213.557 147.655C213.921 148.371 214.428 148.918 215.078 149.295C215.728 149.667 216.487 149.852 217.355 149.852C217.918 149.852 218.432 149.773 218.896 149.614C219.36 149.448 219.761 149.203 220.099 148.878C220.437 148.553 220.696 148.152 220.875 147.675L223.689 148.182C223.463 149.01 223.059 149.736 222.476 150.359C221.899 150.976 221.173 151.456 220.298 151.801C219.43 152.139 218.439 152.308 217.325 152.308ZM230.149 131.636V152H227.176V131.636H230.149ZM244.532 131.636V152H241.559V131.636H244.532ZM254.965 152.308C253.533 152.308 252.284 151.98 251.216 151.324C250.149 150.668 249.321 149.75 248.731 148.57C248.141 147.39 247.846 146.011 247.846 144.433C247.846 142.849 248.141 141.464 248.731 140.277C249.321 139.09 250.149 138.169 251.216 137.513C252.284 136.857 253.533 136.528 254.965 136.528C256.397 136.528 257.646 136.857 258.714 137.513C259.781 138.169 260.609 139.09 261.199 140.277C261.789 141.464 262.084 142.849 262.084 144.433C262.084 146.011 261.789 147.39 261.199 148.57C260.609 149.75 259.781 150.668 258.714 151.324C257.646 151.98 256.397 152.308 254.965 152.308ZM254.975 149.812C255.903 149.812 256.672 149.567 257.282 149.077C257.892 148.586 258.342 147.933 258.634 147.118C258.932 146.303 259.081 145.404 259.081 144.423C259.081 143.449 258.932 142.554 258.634 141.739C258.342 140.917 257.892 140.257 257.282 139.76C256.672 139.263 255.903 139.014 254.975 139.014C254.04 139.014 253.265 139.263 252.648 139.76C252.038 140.257 251.584 140.917 251.286 141.739C250.994 142.554 250.849 143.449 250.849 144.423C250.849 145.404 250.994 146.303 251.286 147.118C251.584 147.933 252.038 148.586 252.648 149.077C253.265 149.567 254.04 149.812 254.975 149.812ZM277.949 136.727L272.41 152H269.229L263.68 136.727H266.872L270.74 148.48H270.899L274.757 136.727H277.949ZM286.806 152.308C285.301 152.308 284.005 151.987 282.918 151.344C281.837 150.694 281.002 149.783 280.412 148.609C279.829 147.429 279.537 146.047 279.537 144.463C279.537 142.899 279.829 141.52 280.412 140.327C281.002 139.134 281.824 138.202 282.878 137.533C283.939 136.863 285.178 136.528 286.597 136.528C287.459 136.528 288.294 136.671 289.102 136.956C289.911 137.241 290.637 137.688 291.28 138.298C291.923 138.908 292.43 139.7 292.801 140.675C293.173 141.643 293.358 142.819 293.358 144.205V145.259H281.218V143.031H290.445C290.445 142.249 290.286 141.556 289.968 140.953C289.649 140.343 289.202 139.863 288.625 139.511C288.055 139.16 287.386 138.984 286.617 138.984C285.781 138.984 285.052 139.19 284.429 139.601C283.813 140.005 283.335 140.536 282.997 141.192C282.666 141.841 282.5 142.547 282.5 143.31V145.05C282.5 146.071 282.679 146.939 283.037 147.655C283.402 148.371 283.909 148.918 284.558 149.295C285.208 149.667 285.967 149.852 286.835 149.852C287.399 149.852 287.913 149.773 288.377 149.614C288.841 149.448 289.242 149.203 289.58 148.878C289.918 148.553 290.176 148.152 290.355 147.675L293.169 148.182C292.944 149.01 292.539 149.736 291.956 150.359C291.379 150.976 290.654 151.456 289.779 151.801C288.91 152.139 287.919 152.308 286.806 152.308ZM302.374 152.298C301.141 152.298 300.041 151.983 299.073 151.354C298.112 150.717 297.356 149.812 296.806 148.639C296.262 147.459 295.991 146.044 295.991 144.393C295.991 142.743 296.266 141.331 296.816 140.158C297.373 138.984 298.135 138.086 299.103 137.463C300.071 136.84 301.168 136.528 302.394 136.528C303.342 136.528 304.104 136.688 304.681 137.006C305.264 137.317 305.715 137.682 306.033 138.099C306.358 138.517 306.61 138.885 306.789 139.203H306.968V131.636H309.941V152H307.037V149.624H306.789C306.61 149.948 306.351 150.32 306.013 150.737C305.682 151.155 305.224 151.519 304.641 151.831C304.058 152.143 303.302 152.298 302.374 152.298ZM303.03 149.763C303.885 149.763 304.608 149.537 305.198 149.087C305.795 148.629 306.245 147.996 306.55 147.188C306.862 146.379 307.018 145.437 307.018 144.364C307.018 143.303 306.865 142.375 306.56 141.58C306.255 140.784 305.808 140.164 305.218 139.72C304.628 139.276 303.899 139.054 303.03 139.054C302.135 139.054 301.39 139.286 300.793 139.75C300.197 140.214 299.746 140.847 299.441 141.649C299.143 142.451 298.993 143.356 298.993 144.364C298.993 145.384 299.146 146.303 299.451 147.118C299.756 147.933 300.206 148.58 300.803 149.057C301.406 149.527 302.149 149.763 303.03 149.763ZM160.819 170.727V173.114H152.477V170.727H160.819ZM154.714 167.068H157.687V181.516C157.687 182.092 157.773 182.527 157.946 182.818C158.118 183.103 158.34 183.299 158.612 183.405C158.89 183.504 159.192 183.554 159.517 183.554C159.755 183.554 159.964 183.537 160.143 183.504C160.322 183.471 160.461 183.445 160.561 183.425L161.098 185.881C160.925 185.947 160.68 186.013 160.362 186.08C160.044 186.152 159.646 186.192 159.169 186.199C158.386 186.212 157.657 186.073 156.981 185.781C156.305 185.49 155.758 185.039 155.341 184.429C154.923 183.819 154.714 183.054 154.714 182.132V167.068ZM170.377 186.308C168.945 186.308 167.696 185.98 166.629 185.324C165.561 184.668 164.733 183.75 164.143 182.57C163.553 181.39 163.258 180.011 163.258 178.433C163.258 176.849 163.553 175.464 164.143 174.277C164.733 173.09 165.561 172.169 166.629 171.513C167.696 170.857 168.945 170.528 170.377 170.528C171.809 170.528 173.058 170.857 174.126 171.513C175.193 172.169 176.022 173.09 176.612 174.277C177.201 175.464 177.496 176.849 177.496 178.433C177.496 180.011 177.201 181.39 176.612 182.57C176.022 183.75 175.193 184.668 174.126 185.324C173.058 185.98 171.809 186.308 170.377 186.308ZM170.387 183.812C171.315 183.812 172.084 183.567 172.694 183.077C173.304 182.586 173.754 181.933 174.046 181.118C174.344 180.303 174.494 179.404 174.494 178.423C174.494 177.449 174.344 176.554 174.046 175.739C173.754 174.917 173.304 174.257 172.694 173.76C172.084 173.263 171.315 173.014 170.387 173.014C169.452 173.014 168.677 173.263 168.06 173.76C167.451 174.257 166.996 174.917 166.698 175.739C166.406 176.554 166.261 177.449 166.261 178.423C166.261 179.404 166.406 180.303 166.698 181.118C166.996 181.933 167.451 182.586 168.06 183.077C168.677 183.567 169.452 183.812 170.387 183.812ZM186.532 186.298C185.299 186.298 184.199 185.983 183.231 185.354C182.27 184.717 181.514 183.812 180.964 182.639C180.421 181.459 180.149 180.044 180.149 178.393C180.149 176.743 180.424 175.331 180.974 174.158C181.531 172.984 182.293 172.086 183.261 171.463C184.229 170.84 185.326 170.528 186.552 170.528C187.5 170.528 188.262 170.688 188.839 171.006C189.422 171.317 189.873 171.682 190.191 172.099C190.516 172.517 190.768 172.885 190.947 173.203H191.126V165.636H194.099V186H191.196V183.624H190.947C190.768 183.948 190.51 184.32 190.172 184.737C189.84 185.155 189.383 185.519 188.799 185.831C188.216 186.143 187.46 186.298 186.532 186.298ZM187.189 183.763C188.044 183.763 188.766 183.537 189.356 183.087C189.953 182.629 190.404 181.996 190.708 181.188C191.02 180.379 191.176 179.437 191.176 178.364C191.176 177.303 191.023 176.375 190.718 175.58C190.413 174.784 189.966 174.164 189.376 173.72C188.786 173.276 188.057 173.054 187.189 173.054C186.294 173.054 185.548 173.286 184.951 173.75C184.355 174.214 183.904 174.847 183.599 175.649C183.301 176.451 183.152 177.356 183.152 178.364C183.152 179.384 183.304 180.303 183.609 181.118C183.914 181.933 184.365 182.58 184.961 183.057C185.565 183.527 186.307 183.763 187.189 183.763ZM202.787 186.338C201.819 186.338 200.944 186.159 200.162 185.801C199.38 185.437 198.76 184.91 198.303 184.22C197.852 183.531 197.626 182.686 197.626 181.685C197.626 180.823 197.792 180.114 198.124 179.557C198.455 179 198.902 178.559 199.466 178.234C200.029 177.91 200.659 177.664 201.355 177.499C202.051 177.333 202.76 177.207 203.483 177.121C204.398 177.015 205.14 176.929 205.71 176.862C206.28 176.789 206.695 176.673 206.953 176.514C207.212 176.355 207.341 176.097 207.341 175.739V175.669C207.341 174.801 207.096 174.128 206.605 173.651C206.121 173.173 205.399 172.935 204.438 172.935C203.437 172.935 202.648 173.157 202.071 173.601C201.501 174.038 201.107 174.526 200.888 175.062L198.094 174.426C198.425 173.498 198.909 172.749 199.545 172.179C200.188 171.602 200.928 171.185 201.763 170.926C202.598 170.661 203.476 170.528 204.398 170.528C205.008 170.528 205.654 170.601 206.337 170.747C207.026 170.886 207.669 171.145 208.266 171.523C208.869 171.901 209.363 172.441 209.747 173.143C210.132 173.839 210.324 174.744 210.324 175.858V186H207.42V183.912H207.301C207.109 184.296 206.821 184.674 206.436 185.045C206.052 185.417 205.558 185.725 204.955 185.97C204.351 186.215 203.629 186.338 202.787 186.338ZM203.433 183.952C204.255 183.952 204.958 183.789 205.541 183.464C206.131 183.14 206.579 182.715 206.884 182.192C207.195 181.661 207.351 181.095 207.351 180.491V178.523C207.245 178.629 207.039 178.728 206.734 178.821C206.436 178.907 206.095 178.983 205.71 179.05C205.326 179.109 204.951 179.166 204.587 179.219C204.222 179.265 203.917 179.305 203.672 179.338C203.095 179.411 202.568 179.534 202.091 179.706C201.62 179.878 201.242 180.127 200.957 180.452C200.679 180.77 200.54 181.194 200.54 181.724C200.54 182.46 200.812 183.017 201.355 183.395C201.899 183.766 202.591 183.952 203.433 183.952ZM215.616 191.727C215.172 191.727 214.768 191.691 214.403 191.618C214.038 191.552 213.767 191.479 213.588 191.399L214.304 188.963C214.847 189.109 215.331 189.172 215.755 189.152C216.18 189.132 216.554 188.973 216.879 188.675C217.21 188.376 217.502 187.889 217.754 187.213L218.122 186.199L212.534 170.727H215.716L219.583 182.58H219.743L223.61 170.727H226.802L220.508 188.038C220.217 188.834 219.845 189.507 219.395 190.057C218.944 190.614 218.407 191.031 217.784 191.31C217.161 191.588 216.438 191.727 215.616 191.727ZM232.848 180.143V179.955C232.861 178.722 232.984 177.741 233.216 177.011C233.454 176.282 233.792 175.692 234.23 175.241C234.667 174.791 235.194 174.38 235.811 174.009C236.208 173.757 236.566 173.475 236.885 173.163C237.203 172.852 237.455 172.494 237.64 172.089C237.826 171.685 237.919 171.238 237.919 170.747C237.919 170.157 237.779 169.647 237.501 169.216C237.223 168.785 236.851 168.454 236.387 168.222C235.93 167.983 235.42 167.864 234.856 167.864C234.346 167.864 233.859 167.97 233.395 168.182C232.931 168.394 232.546 168.725 232.241 169.176C231.936 169.62 231.761 170.194 231.714 170.896H228.691C228.738 169.703 229.039 168.696 229.596 167.874C230.153 167.045 230.889 166.419 231.804 165.994C232.725 165.57 233.743 165.358 234.856 165.358C236.076 165.358 237.143 165.587 238.058 166.044C238.973 166.495 239.682 167.128 240.186 167.943C240.696 168.752 240.951 169.696 240.951 170.777C240.951 171.519 240.835 172.189 240.603 172.786C240.371 173.375 240.04 173.902 239.609 174.366C239.185 174.83 238.674 175.241 238.078 175.599C237.514 175.951 237.057 176.315 236.706 176.693C236.361 177.071 236.109 177.518 235.95 178.036C235.791 178.553 235.705 179.192 235.691 179.955V180.143H232.848ZM234.349 186.189C233.806 186.189 233.338 185.997 232.947 185.612C232.556 185.221 232.36 184.75 232.36 184.2C232.36 183.657 232.556 183.193 232.947 182.808C233.338 182.417 233.806 182.222 234.349 182.222C234.886 182.222 235.35 182.417 235.741 182.808C236.139 183.193 236.338 183.657 236.338 184.2C236.338 184.565 236.245 184.9 236.059 185.205C235.88 185.503 235.642 185.741 235.343 185.92C235.045 186.099 234.714 186.189 234.349 186.189Z" fill="#191919"/>
<rect x="130" y="839" width="134" height="5" rx="2.5" fill="#4F3422"/>
<g filter="url(#filter0_di_1388_2121)">
<rect x="44" y="740" width="305" height="56" rx="28" fill="#00A99D" shape-rendering="crispEdges"/>
<path d="M153.512 765.98H151.256C151.085 765.393 150.781 764.945 150.344 764.636C149.917 764.327 149.4 764.172 148.792 764.172C148.195 764.172 147.677 764.332 147.24 764.652C146.813 764.961 146.483 765.409 146.248 765.996C146.024 766.572 145.912 767.265 145.912 768.076C145.912 768.887 146.024 769.58 146.248 770.156C146.472 770.732 146.797 771.175 147.224 771.484C147.661 771.793 148.184 771.948 148.792 771.948C149.368 771.948 149.869 771.804 150.296 771.516C150.733 771.217 151.043 770.785 151.224 770.22H153.496C153.304 770.977 152.979 771.617 152.52 772.14C152.072 772.663 151.528 773.063 150.888 773.34C150.259 773.607 149.571 773.74 148.824 773.74C147.768 773.74 146.856 773.511 146.088 773.052C145.32 772.593 144.728 771.943 144.312 771.1C143.907 770.257 143.704 769.249 143.704 768.076C143.704 766.903 143.912 765.895 144.328 765.052C144.744 764.199 145.336 763.543 146.104 763.084C146.872 762.615 147.789 762.38 148.856 762.38C149.613 762.38 150.312 762.519 150.952 762.796C151.592 763.063 152.136 763.463 152.584 763.996C153.043 764.529 153.352 765.191 153.512 765.98ZM158.719 773.74C157.865 773.74 157.129 773.559 156.511 773.196C155.903 772.833 155.433 772.316 155.103 771.644C154.772 770.961 154.607 770.156 154.607 769.228C154.607 768.257 154.772 767.436 155.103 766.764C155.444 766.081 155.924 765.564 156.543 765.212C157.161 764.86 157.887 764.684 158.719 764.684C159.561 764.684 160.287 764.871 160.895 765.244C161.513 765.607 161.988 766.129 162.319 766.812C162.649 767.484 162.815 768.289 162.815 769.228C162.815 770.188 162.644 771.004 162.303 771.676C161.972 772.348 161.497 772.86 160.879 773.212C160.271 773.564 159.551 773.74 158.719 773.74ZM158.719 772.044C159.359 772.044 159.849 771.804 160.191 771.324C160.532 770.833 160.703 770.135 160.703 769.228C160.703 768.311 160.532 767.607 160.191 767.116C159.849 766.625 159.359 766.38 158.719 766.38C158.068 766.38 157.572 766.625 157.231 767.116C156.889 767.596 156.719 768.3 156.719 769.228C156.719 770.124 156.889 770.817 157.231 771.308C157.572 771.799 158.068 772.044 158.719 772.044ZM164.303 773.5V764.924H166.351V773.5H164.303ZM166.351 768.524H165.695C165.749 767.66 165.914 766.945 166.191 766.38C166.469 765.815 166.837 765.393 167.295 765.116C167.765 764.828 168.298 764.684 168.895 764.684C169.471 764.684 169.973 764.801 170.399 765.036C170.837 765.26 171.173 765.601 171.407 766.06C171.653 766.519 171.775 767.095 171.775 767.788V773.5H169.727V768.204C169.727 767.809 169.669 767.479 169.551 767.212C169.445 766.935 169.279 766.727 169.055 766.588C168.831 766.449 168.543 766.38 168.191 766.38C167.914 766.38 167.658 766.439 167.423 766.556C167.199 766.663 167.007 766.817 166.847 767.02C166.687 767.212 166.565 767.441 166.479 767.708C166.394 767.964 166.351 768.236 166.351 768.524ZM173.935 770.828V762.956H175.983V770.652C175.983 771.1 176.073 771.441 176.255 771.676C176.436 771.911 176.809 772.028 177.375 772.028H177.759V773.532C177.652 773.596 177.487 773.644 177.263 773.676C177.039 773.719 176.788 773.74 176.511 773.74C175.636 773.74 174.985 773.495 174.559 773.004C174.143 772.513 173.935 771.788 173.935 770.828ZM172.831 766.508V764.924H177.791V766.508H172.831ZM178.991 773.5V764.924H181.039V773.5H178.991ZM178.991 763.964V761.98H181.039V763.964H178.991ZM182.913 773.5V764.924H184.961V773.5H182.913ZM184.961 768.524H184.305C184.358 767.66 184.523 766.945 184.801 766.38C185.078 765.815 185.446 765.393 185.905 765.116C186.374 764.828 186.907 764.684 187.505 764.684C188.081 764.684 188.582 764.801 189.009 765.036C189.446 765.26 189.782 765.601 190.017 766.06C190.262 766.519 190.385 767.095 190.385 767.788V773.5H188.337V768.204C188.337 767.809 188.278 767.479 188.161 767.212C188.054 766.935 187.889 766.727 187.665 766.588C187.441 766.449 187.153 766.38 186.801 766.38C186.523 766.38 186.267 766.439 186.033 766.556C185.809 766.663 185.617 766.817 185.457 767.02C185.297 767.212 185.174 767.441 185.089 767.708C185.003 767.964 184.961 768.236 184.961 768.524ZM199.648 764.924V773.5H197.6V764.924H199.648ZM197.6 769.9H198.256C198.213 770.764 198.048 771.484 197.76 772.06C197.483 772.625 197.115 773.047 196.656 773.324C196.208 773.601 195.691 773.74 195.104 773.74C194.549 773.74 194.053 773.628 193.616 773.404C193.189 773.169 192.859 772.823 192.624 772.364C192.389 771.905 192.272 771.335 192.272 770.652V764.924H194.32V770.236C194.32 770.62 194.373 770.951 194.48 771.228C194.587 771.495 194.747 771.697 194.96 771.836C195.184 771.975 195.467 772.044 195.808 772.044C196.085 772.044 196.331 771.991 196.544 771.884C196.768 771.767 196.955 771.607 197.104 771.404C197.264 771.201 197.387 770.972 197.472 770.716C197.557 770.46 197.6 770.188 197.6 769.9ZM208.402 768.348L207.218 769.18C207.218 768.273 207.047 767.58 206.706 767.1C206.364 766.609 205.874 766.364 205.234 766.364C204.583 766.364 204.087 766.609 203.746 767.1C203.404 767.591 203.234 768.3 203.234 769.228C203.234 770.135 203.41 770.833 203.762 771.324C204.124 771.815 204.642 772.06 205.314 772.06C205.794 772.06 206.194 771.948 206.514 771.724C206.844 771.5 207.074 771.159 207.202 770.7H209.362C209.127 771.692 208.647 772.449 207.922 772.972C207.207 773.484 206.338 773.74 205.314 773.74C204.46 773.74 203.719 773.559 203.09 773.196C202.46 772.833 201.975 772.316 201.634 771.644C201.303 770.961 201.138 770.156 201.138 769.228C201.138 768.257 201.303 767.436 201.634 766.764C201.975 766.081 202.455 765.564 203.074 765.212C203.692 764.86 204.412 764.684 205.234 764.684C206.066 764.684 206.786 764.865 207.394 765.228C208.002 765.591 208.471 766.103 208.802 766.764C209.132 767.425 209.298 768.22 209.298 769.148V769.628H201.986V768.348H208.402Z" fill="white"/>
<path d="M240 778L238.59 776.59L246.17 769H226V767H246.17L238.59 759.41L240 758L250 768L240 778Z" fill="white"/>
</g>
<path d="M197.034 296.5C244.836 296.5 283.5 333.683 283.5 384.133C283.5 434.815 244.541 475.5 196.966 475.5C149.164 475.5 110.5 438.317 110.5 387.867C110.5 362.358 118.806 339.513 133.653 323.098C148.454 306.733 169.981 296.5 197.034 296.5Z" fill="#FEDE00" stroke="#030412" stroke-width="9"/>
<path d="M156.729 406.054C154.256 407.283 153.227 410.3 154.697 412.638C158.692 418.993 164.079 424.386 170.476 428.395C178.29 433.292 187.305 435.932 196.526 436.025C205.746 436.117 214.813 433.658 222.723 428.919C229.199 425.04 234.694 419.756 238.816 413.482C240.332 411.174 239.363 408.136 236.916 406.858C234.468 405.58 231.472 406.55 229.899 408.82C226.67 413.476 222.477 417.41 217.584 420.341C211.256 424.132 204.003 426.099 196.626 426.025C189.25 425.951 182.037 423.839 175.786 419.922C170.953 416.893 166.84 412.876 163.706 408.156C162.178 405.855 159.202 404.825 156.729 406.054Z" fill="#030412"/>
<ellipse cx="230" cy="358.879" rx="8" ry="11.8788" fill="#0B0A00"/>
<ellipse cx="163" cy="358.879" rx="8" ry="11.8788" fill="#0B0A00"/>
<path fill-rule="evenodd" clip-rule="evenodd" d="M259.105 329.269C272.197 345.207 279.796 365.608 279.177 387.648C278.423 414.498 265.629 438.234 246 454.035C257.626 432.382 264.623 407.18 265.382 380.144C265.881 362.376 263.646 345.247 259.105 329.269Z" fill="#FEB70F"/>
<path d="M166.868 268.552V267.144H172.356V268.552H166.868ZM173.044 271L169.956 262.904L169.588 261.688H169.684L169.316 262.904L166.228 271H164.436L168.628 260.12H170.724L174.916 271H173.044ZM178.892 271V259.48H180.604V271H178.892ZM182.673 271V262.472H184.385V271H182.673ZM182.673 261.416V259.48H184.385V261.416H182.673ZM186.678 268.456V260.504H188.39V268.36C188.39 268.851 188.486 269.213 188.678 269.448C188.881 269.683 189.275 269.8 189.862 269.8H190.198V271.048C190.113 271.101 189.969 271.139 189.766 271.16C189.574 271.192 189.361 271.208 189.126 271.208C188.305 271.208 187.691 270.979 187.286 270.52C186.881 270.061 186.678 269.373 186.678 268.456ZM185.526 263.8V262.472H190.23V263.8H185.526ZM191.741 268.456V260.504H193.453V268.36C193.453 268.851 193.549 269.213 193.741 269.448C193.943 269.683 194.338 269.8 194.925 269.8H195.261V271.048C195.175 271.101 195.031 271.139 194.829 271.16C194.637 271.192 194.423 271.208 194.189 271.208C193.367 271.208 192.754 270.979 192.349 270.52C191.943 270.061 191.741 269.373 191.741 268.456ZM190.589 263.8V262.472H195.293V263.8H190.589ZM196.579 271V259.48H198.291V271H196.579ZM207.112 265.896L206.136 266.696C206.136 265.725 205.944 264.979 205.56 264.456C205.176 263.933 204.627 263.672 203.912 263.672C203.187 263.672 202.632 263.939 202.248 264.472C201.875 264.995 201.688 265.752 201.688 266.744C201.688 267.715 201.886 268.467 202.28 269C202.686 269.523 203.256 269.784 203.992 269.784C204.536 269.784 204.99 269.656 205.352 269.4C205.726 269.144 205.987 268.749 206.136 268.216H207.928C207.694 269.208 207.224 269.955 206.52 270.456C205.827 270.957 204.984 271.208 203.992 271.208C203.16 271.208 202.44 271.032 201.832 270.68C201.224 270.317 200.755 269.8 200.424 269.128C200.104 268.456 199.944 267.661 199.944 266.744C199.944 265.773 200.104 264.957 200.424 264.296C200.755 263.624 201.219 263.117 201.816 262.776C202.414 262.424 203.112 262.248 203.912 262.248C204.734 262.248 205.438 262.429 206.024 262.792C206.611 263.144 207.064 263.645 207.384 264.296C207.704 264.947 207.864 265.731 207.864 266.648V267.064H200.648V265.896H207.112ZM216.752 262.248C217.498 262.248 218.138 262.429 218.672 262.792C219.216 263.144 219.632 263.656 219.92 264.328C220.208 264.989 220.352 265.784 220.352 266.712C220.352 268.163 220.026 269.277 219.376 270.056C218.725 270.824 217.85 271.208 216.752 271.208C215.781 271.208 215.008 270.824 214.432 270.056C213.866 269.288 213.584 268.173 213.584 266.712C213.584 265.805 213.712 265.016 213.968 264.344C214.234 263.672 214.602 263.155 215.072 262.792C215.552 262.429 216.112 262.248 216.752 262.248ZM216.528 263.688C215.834 263.688 215.312 263.949 214.96 264.472C214.608 264.984 214.432 265.731 214.432 266.712C214.432 267.693 214.613 268.451 214.976 268.984C215.338 269.507 215.856 269.768 216.528 269.768C217.2 269.768 217.712 269.507 218.064 268.984C218.426 268.461 218.608 267.704 218.608 266.712C218.608 265.741 218.426 264.995 218.064 264.472C217.701 263.949 217.189 263.688 216.528 263.688ZM214.432 271H212.72V259.48H214.432V271ZM222.017 271V262.472H223.729V271H222.017ZM222.017 261.416V259.48H223.729V261.416H222.017ZM226.022 268.456V260.504H227.734V268.36C227.734 268.851 227.83 269.213 228.022 269.448C228.224 269.683 228.619 269.8 229.206 269.8H229.542V271.048C229.456 271.101 229.312 271.139 229.11 271.16C228.918 271.192 228.704 271.208 228.47 271.208C227.648 271.208 227.035 270.979 226.63 270.52C226.224 270.061 226.022 269.373 226.022 268.456ZM224.87 263.8V262.472H229.574V263.8H224.87Z" fill="black"/>
<rect x="33" y="616" width="328" height="16" rx="8" fill="#D9D9D9"/>
<rect x="33" y="616" width="187.2" height="16" rx="8" fill="#00A99D"/>
<g filter="url(#filter1_di_1388_2121)">
<rect x="244" y="600" width="48" height="48" rx="24" transform="rotate(90 244 600)" fill="#33BBB1"/>
<g clip-path="url(#clip1_1388_2121)">
<path d="M226.034 629.366L230.954 624.446C231.014 624.388 231.062 624.319 231.095 624.242C231.128 624.166 231.145 624.083 231.145 624C231.145 623.917 231.128 623.834 231.095 623.758C231.062 623.681 231.014 623.612 230.954 623.554L226.034 618.634M213.966 629.366L209.046 624.446C208.986 624.388 208.938 624.319 208.905 624.242C208.872 624.166 208.855 624.083 208.855 624C208.855 623.917 208.872 623.834 208.905 623.758C208.938 623.681 208.986 623.612 209.046 623.554L213.966 618.634" stroke="#CCEFEB" stroke-width="2.28571" stroke-linecap="round" stroke-linejoin="round"/>
</g>
</g>
<rect width="393" height="47" fill="#F4F4F4"/>
<path d="M111 0H283C279.686 0 277 2.68629 277 6V6.71329C277 9.20832 277 10.4558 276.902 11.5071C275.889 22.3234 267.323 30.8887 256.507 31.9016C255.456 32 254.208 32 251.713 32H142.287C139.792 32 138.544 32 137.493 31.9016C126.677 30.8887 118.111 22.3234 117.098 11.5071C117 10.4558 117 9.20832 117 6.71329V6C117 2.68629 114.314 0 111 0Z" fill="black"/>
<path d="M43.4956 19.4453C41.0503 19.4453 39.3081 21.1172 39.3081 23.4062V23.4219C39.3081 25.5625 40.8237 27.1406 42.9878 27.1406C44.5347 27.1406 45.5191 26.3516 45.9331 25.4609H46.0894C46.0894 25.5469 46.0816 25.6328 46.0816 25.7188C45.9956 27.875 45.2378 29.625 43.4487 29.625C42.4566 29.625 41.7612 29.1094 41.4644 28.3203L41.4409 28.2422H39.4566L39.4722 28.3281C39.8316 30.0547 41.3784 31.2812 43.4487 31.2812C46.2847 31.2812 47.9956 29.0312 47.9956 25.2344V25.2188C47.9956 21.1562 45.9019 19.4453 43.4956 19.4453ZM43.4878 25.5938C42.2066 25.5938 41.2769 24.6562 41.2769 23.3516V23.3359C41.2769 22.0781 42.2691 21.0859 43.5112 21.0859C44.7612 21.0859 45.7378 22.0938 45.7378 23.3828V23.3984C45.7378 24.6719 44.7612 25.5938 43.4878 25.5938ZM51.2225 23.6953C51.9412 23.6953 52.4647 23.1484 52.4647 22.4609C52.4647 21.7656 51.9412 21.2266 51.2225 21.2266C50.5116 21.2266 49.9803 21.7656 49.9803 22.4609C49.9803 23.1484 50.5116 23.6953 51.2225 23.6953ZM51.2225 29.4922C51.9412 29.4922 52.4647 28.9531 52.4647 28.2578C52.4647 27.5625 51.9412 27.0234 51.2225 27.0234C50.5116 27.0234 49.9803 27.5625 49.9803 28.2578C49.9803 28.9531 50.5116 29.4922 51.2225 29.4922ZM59.9181 31H61.8478V28.8359H63.3634V27.1719H61.8478V19.7266H58.9963C57.465 22.0547 55.8634 24.6484 54.4025 27.1875V28.8359H59.9181V31ZM56.2775 27.2188V27.1016C57.3713 25.1875 58.6759 23.1016 59.8322 21.3359H59.9494V27.2188H56.2775ZM67.7153 31H69.7309V19.7266H67.7231L64.7778 21.7969V23.6953L67.5825 21.7109H67.7153V31Z" fill="black"/>
<path opacity="0.35" d="M343 19.5H360C361.933 19.5 363.5 21.067 363.5 23V28C363.5 29.933 361.933 31.5 360 31.5H343C341.067 31.5 339.5 29.933 339.5 28V23C339.5 21.067 341.067 19.5 343 19.5Z" stroke="black"/>
<path opacity="0.4" d="M365 24V28.2203C365.849 27.8629 366.401 27.0314 366.401 26.1102C366.401 25.1889 365.849 24.3574 365 24Z" fill="black"/>
<path d="M341 23C341 21.8954 341.895 21 343 21H360C361.105 21 362 21.8954 362 23V28C362 29.1046 361.105 30 360 30H343C341.895 30 341 29.1046 341 28V23Z" fill="black"/>
<path fill-rule="evenodd" clip-rule="evenodd" d="M323.5 22.5875C325.967 22.5876 328.339 23.5551 330.127 25.2898C330.261 25.4237 330.477 25.4221 330.609 25.286L331.896 23.9604C331.963 23.8915 332.001 23.798 332 23.7008C331.999 23.6035 331.961 23.5105 331.893 23.4423C327.201 18.8526 319.799 18.8526 315.107 23.4423C315.039 23.5105 315.001 23.6034 315 23.7007C314.999 23.7979 315.037 23.8914 315.104 23.9604L316.391 25.286C316.523 25.4223 316.739 25.424 316.873 25.2898C318.661 23.5549 321.034 22.5875 323.5 22.5875ZM323.536 26.5894C324.891 26.5893 326.198 27.1035 327.203 28.032C327.338 28.1638 327.552 28.1609 327.685 28.0255L328.97 26.7C329.038 26.6304 329.075 26.5361 329.074 26.4381C329.073 26.3401 329.034 26.2466 328.965 26.1784C325.906 23.2739 321.169 23.2739 318.109 26.1784C318.04 26.2466 318.001 26.3401 318 26.4382C317.999 26.5362 318.037 26.6305 318.105 26.7L319.39 28.0255C319.522 28.1609 319.736 28.1638 319.872 28.032C320.876 27.1041 322.182 26.5899 323.536 26.5894ZM326.15 29.1767C326.152 29.275 326.114 29.3698 326.045 29.4386L323.822 31.7289C323.756 31.7962 323.668 31.834 323.575 31.834C323.482 31.834 323.393 31.7962 323.328 31.7289L321.105 29.4386C321.036 29.3697 320.998 29.2749 321 29.1766C321.002 29.0783 321.044 28.9853 321.115 28.9194C322.535 27.6935 324.615 27.6935 326.035 28.9194C326.106 28.9853 326.148 29.0784 326.15 29.1767Z" fill="black"/>
<path d="M299 23C299 22.4477 299.448 22 300 22H301C301.552 22 302 22.4477 302 23V31C302 31.5523 301.552 32 301 32H300C299.448 32 299 31.5523 299 31V23Z" fill="black"/>
<path d="M304 21C304 20.4477 304.448 20 305 20H306C306.552 20 307 20.4477 307 21V31C307 31.5523 306.552 32 306 32H305C304.448 32 304 31.5523 304 31V21Z" fill="black"/>
<path d="M294 26.5C294 25.9477 294.448 25.5 295 25.5H296C296.552 25.5 297 25.9477 297 26.5V31C297 31.5523 296.552 32 296 32H295C294.448 32 294 31.5523 294 31V26.5Z" fill="black"/>
<path d="M289 29C289 28.4477 289.448 28 290 28H291C291.552 28 292 28.4477 292 29V31C292 31.5523 291.552 32 291 32H290C289.448 32 289 31.5523 289 31V29Z" fill="black"/>
</g>
<defs>
<filter id="filter0_di_1388_2121" x="42" y="738" width="313" height="64" filterUnits="userSpaceOnUse" color-interpolation-filters="sRGB">
<feFlood flood-opacity="0" result="BackgroundImageFix"/>
<feColorMatrix in="SourceAlpha" type="matrix" values="0 0 0 0 0 0 0 0 0 0 0 0 0 0 0 0 0 0 127 0" result="hardAlpha"/>
<feOffset dx="2" dy="2"/>
<feGaussianBlur stdDeviation="2"/>
<feComposite in2="hardAlpha" operator="out"/>
<feColorMatrix type="matrix" values="0 0 0 0 0.541667 0 0 0 0 0.532639 0 0 0 0 0.532639 0 0 0 0.3 0"/>
<feBlend mode="normal" in2="BackgroundImageFix" result="effect1_dropShadow_1388_2121"/>
<feBlend mode="normal" in="SourceGraphic" in2="effect1_dropShadow_1388_2121" result="shape"/>
<feColorMatrix in="SourceAlpha" type="matrix" values="0 0 0 0 0 0 0 0 0 0 0 0 0 0 0 0 0 0 127 0" result="hardAlpha"/>
<feOffset dx="2" dy="-2"/>
<feGaussianBlur stdDeviation="2"/>
<feComposite in2="hardAlpha" operator="arithmetic" k2="-1" k3="1"/>
<feColorMatrix type="matrix" values="0 0 0 0 0.0104861 0 0 0 0 0.629167 0 0 0 0 0.585237 0 0 0 1 0"/>
<feBlend mode="normal" in2="shape" result="effect2_innerShadow_1388_2121"/>
</filter>
<filter id="filter1_di_1388_2121" x="194" y="598" width="56" height="56" filterUnits="userSpaceOnUse" color-interpolation-filters="sRGB">
<feFlood flood-opacity="0" result="BackgroundImageFix"/>
<feColorMatrix in="SourceAlpha" type="matrix" values="0 0 0 0 0 0 0 0 0 0 0 0 0 0 0 0 0 0 127 0" result="hardAlpha"/>
<feOffset dx="2" dy="2"/>
<feGaussianBlur stdDeviation="2"/>
<feComposite in2="hardAlpha" operator="out"/>
<feColorMatrix type="matrix" values="0 0 0 0 0.541667 0 0 0 0 0.532639 0 0 0 0 0.532639 0 0 0 0.3 0"/>
<feBlend mode="normal" in2="BackgroundImageFix" result="effect1_dropShadow_1388_2121"/>
<feBlend mode="normal" in="SourceGraphic" in2="effect1_dropShadow_1388_2121" result="shape"/>
<feColorMatrix in="SourceAlpha" type="matrix" values="0 0 0 0 0 0 0 0 0 0 0 0 0 0 0 0 0 0 127 0" result="hardAlpha"/>
<feOffset dx="2" dy="-2"/>
<feGaussianBlur stdDeviation="2"/>
<feComposite in2="hardAlpha" operator="arithmetic" k2="-1" k3="1"/>
<feColorMatrix type="matrix" values="0 0 0 0 0 0 0 0 0 0.658333 0 0 0 0 0.611588 0 0 0 1 0"/>
<feBlend mode="normal" in2="shape" result="effect2_innerShadow_1388_2121"/>
</filter>
<clipPath id="clip0_1388_2121">
<rect width="393" height="852" rx="40" fill="white"/>
</clipPath>
<clipPath id="clip1_1388_2121">
<rect width="24" height="24" fill="white" transform="matrix(-1 0 0 -1 232 636)"/>
</clipPath>
</defs>
</svg>
