<svg xmlns="http://www.w3.org/2000/svg" viewBox="0 0 354.36 320.77"><defs><style>.cls-1{fill:#00a99d;}</style></defs><g id="Layer_2" data-name="Layer 2"><g id="Layer_1-2" data-name="Layer 1"><path class="cls-1" d="M349.4,152.88l-79.23,78.9a14,14,0,0,1-11.34,4l-22.49-2.29a14.07,14.07,0,0,0-11.34,4l-78.64,78.31a16.87,16.87,0,0,1-24.14-.34L111,303.66a16.87,16.87,0,0,1,.34-23.56l79.22-78.89a14,14,0,0,1,11.33-4l22.5,2.27a14.09,14.09,0,0,0,11.33-4l78.64-78.32a16.86,16.86,0,0,1,24.14.35l11.25,11.87a16.86,16.86,0,0,1-.34,23.55"/><path class="cls-1" d="M330.75,39.16a16.87,16.87,0,0,1-.34,23.56L307.88,85.14,217,175.66a14.06,14.06,0,0,1-11.33,4l-22.5-2.27a14,14,0,0,0-11.33,4L80.94,272,59,293.81a16.87,16.87,0,0,1-24.15-.35L23.61,281.6A16.87,16.87,0,0,1,24,258l22.52-22.41,90.89-90.52a14.09,14.09,0,0,1,11.33-4l22.5,2.28a14.1,14.1,0,0,0,11.34-4l90.88-90.52L295.37,27a16.85,16.85,0,0,1,24.14.34Z"/><path class="cls-1" d="M243,40.66l-79.23,78.9a14.07,14.07,0,0,1-11.33,4L130,121.31a14.08,14.08,0,0,0-11.33,4L40,203.65a16.86,16.86,0,0,1-24.14-.34L4.62,191.44A16.87,16.87,0,0,1,5,167.89L84.19,89a14.07,14.07,0,0,1,11.34-4L118,87.25a14,14,0,0,0,11.34-4L208,4.92a16.86,16.86,0,0,1,24.14.34L243.37,17.1A16.87,16.87,0,0,1,243,40.66"/></g></g></svg>