<svg xmlns="http://www.w3.org/2000/svg" viewBox="0 0 1015.05 236.28"><defs><style>.cls-1{fill:#fff;}</style></defs><g id="Layer_2" data-name="Layer 2"><g id="Layer_1-2" data-name="Layer 1"><path class="cls-1" d="M257.37,112.61,199,170.73a10.38,10.38,0,0,1-8.35,3L174.09,172a10.32,10.32,0,0,0-8.35,3l-57.93,57.69A12.42,12.42,0,0,1,90,232.4l-8.27-8.72A12.41,12.41,0,0,1,82,206.33l58.36-58.12a10.36,10.36,0,0,1,8.35-3l16.57,1.68a10.36,10.36,0,0,0,8.35-3l57.92-57.68a12.43,12.43,0,0,1,17.79.25l8.28,8.74a12.42,12.42,0,0,1-.25,17.35m-22-92.5a12.43,12.43,0,0,0-17.79-.25L201.41,36l-66.95,66.67a10.36,10.36,0,0,1-8.35,3l-16.58-1.68a10.35,10.35,0,0,0-8.34,3L34.24,173.56,17.65,190.08a12.42,12.42,0,0,0-.26,17.35l8.28,8.74a12.43,12.43,0,0,0,17.79.25l16.16-16.1,66.95-66.67a10.36,10.36,0,0,1,8.35-3l16.57,1.68a10.36,10.36,0,0,0,8.35-3l66.95-66.68L243.38,46.2a12.42,12.42,0,0,0,.25-17.35ZM179,30a12.42,12.42,0,0,0,.25-17.35L171,3.87a12.44,12.44,0,0,0-17.79-.25L95.29,61.31a10.34,10.34,0,0,1-8.36,3L70.37,62.58a10.38,10.38,0,0,0-8.36,3L3.66,123.67A12.42,12.42,0,0,0,3.41,141l8.28,8.74a12.43,12.43,0,0,0,17.79.25L87.4,92.33a10.36,10.36,0,0,1,8.35-3L112.32,91a10.36,10.36,0,0,0,8.35-3L179,30M322,169.19c0,14.69,7.53,19.31,19,19.31H418.9c9.52,0,16.46-2.81,16.46-13.27S428.42,162,418.9,162H354.47V127h55.11c8.53,0,15.27-2.42,15.27-12.68s-6.74-12.67-15.27-12.67H354.47V70.23h62.84c9.52,0,16.46-2.81,16.46-13.27s-6.94-13.28-16.46-13.28H341c-11.5,0-19,4.63-19,19.31Zm131.44,7.25c0,7.84,3.18,14.68,14.48,14.68s14.47-6.84,14.47-14.68V127.56c0-13.68,9.91-22.73,21-22.73,11.3,0,15.86,8.45,15.86,18.91v52.7c0,7.84,3.17,14.68,14.47,14.68s14.47-6.84,14.47-14.68V127.56c0-13.68,9.92-22.73,21-22.73,11.3,0,15.86,8.45,15.86,18.91v52.7c0,7.84,3.17,14.68,14.47,14.68S614,184.28,614,176.44V116.29c0-26.35-16.06-35.6-36.09-35.6-15.66,0-26,7-34.1,18.51C538.45,85.32,526,80.69,516,80.69c-14.67,0-27.35,6.84-34.89,18.51h-.4V95.38c0-8.85-5.15-14.69-13.68-14.69s-13.68,5.84-13.68,14.69Zm182.8,39c0,9.65,5.75,14.68,14.47,14.68s14.47-5,14.47-14.68V176.23h.4c5.35,9.46,15.26,14.89,28.55,14.89,30.53,0,44.61-26.35,44.61-54.51,0-38-21.22-55.92-45.4-55.92-14.08,0-25.78,6-30.54,18.51h-.39V94.57c0-9-4.56-13.88-13.09-13.88-8.92,0-13.08,4.83-13.08,13.88Zm73.55-79.86c0,13.68-4.56,32.59-23,32.59-17.64.2-23.19-17.5-23.19-32.59,0-16.69,6.34-32,23.19-32C702.21,104,709.74,118.31,709.74,135.6Zm68.2-43.84c-1.79-6.64-7.14-11.07-14.87-11.07A13.94,13.94,0,0,0,749,94.77c0,3.42,1.19,6.64,3.57,13.68l30.14,87.09c-2.18,9.06-6.35,9.26-10.12,9.26h-3c-7.73,0-13.28,4-13.28,11.86,0,7,5.35,13.48,18.24,13.48,18.24,0,26.17-10.46,33.11-30.57l33.5-96.35c1.39-3.82,2.18-6.84,2.18-9.25,0-3.62-3.37-13.28-14.87-13.28-7.93,0-11.89,5.63-13.87,13.08L797,160.34h-.4Zm80.89,84.68c0,9.65,5.75,14.68,14.47,14.68s14.47-5,14.47-14.68V55.75c0-9.65-5.75-14.68-14.47-14.68s-14.47,5-14.47,14.68ZM908,135.81c0,29.36,14.08,55.31,53.53,55.31s53.53-26,53.53-55.31c0-31-18.63-55.12-53.53-55.12S908,104.83,908,135.81Zm29,0c0-19.11,7.73-33.39,24.58-33.39s24.59,14.28,24.59,33.39c0,17.9-7.34,33.59-24.59,33.59S936.94,153.71,936.94,135.81Z"/></g></g></svg>