<svg xmlns="http://www.w3.org/2000/svg" viewBox="0 0 693.1 189.07"><defs><style>.cls-1{fill:#00a99d;}</style></defs><g id="Layer_2" data-name="Layer 2"><g id="Layer_1-2" data-name="Layer 1"><path class="cls-1" d="M0,128.13c0,14.68,7.53,19.31,19,19.31H97c9.52,0,16.46-2.82,16.46-13.28S106.47,120.89,97,120.89H32.51v-35H87.63c8.53,0,15.27-2.42,15.27-12.67S96.16,60.54,87.63,60.54H32.51V29.17H95.36c9.52,0,16.46-2.82,16.46-13.28S104.88,2.61,95.36,2.61H19C7.53,2.61,0,7.24,0,21.92Zm131.44,7.24c0,7.84,3.18,14.68,14.48,14.68s14.47-6.84,14.47-14.68V86.49c0-13.68,9.91-22.73,21-22.73,11.31,0,15.87,8.45,15.87,18.91v52.7c0,7.84,3.17,14.68,14.47,14.68s14.47-6.84,14.47-14.68V86.49c0-13.68,9.92-22.73,21-22.73,11.3,0,15.86,8.45,15.86,18.91v52.7c0,7.84,3.17,14.68,14.47,14.68S292,143.21,292,135.37V75.23C292,48.88,276,39.62,256,39.62c-15.66,0-26,7.05-34.1,18.51C216.5,44.25,204,39.62,194.09,39.62c-14.67,0-27.36,6.84-34.89,18.51h-.4V54.31c0-8.85-5.15-14.69-13.68-14.69s-13.68,5.84-13.68,14.69ZM371.33,39.63c-14.07,0-25.77,6-30.53,18.5h-.4V53.51c0-9.06-4.56-13.88-13.08-13.88-8.92,0-13.09,4.82-13.09,13.88V174.39c0,9.66,5.75,14.68,14.48,14.68s14.47-5,14.47-14.68V135.17h.4c5.35,9.45,15.26,14.88,28.55,14.88,30.53,0,44.6-26.35,44.6-54.51C416.73,57.53,395.52,39.63,371.33,39.63Zm-6.54,87.49c-17.65.2-23.2-17.5-23.2-32.58,0-16.7,6.35-32,23.2-32,15.46.4,23,14.68,23,32C387.79,108.22,383.23,127.12,364.79,127.12ZM456,50.69c-1.79-6.64-7.14-11.07-14.87-11.07A13.94,13.94,0,0,0,427,53.71c0,3.41,1.19,6.63,3.57,13.67l30.13,87.1c-2.18,9.05-6.34,9.25-10.11,9.25h-3c-7.73,0-13.28,4-13.28,11.87,0,7,5.35,13.47,18.24,13.47,18.24,0,26.17-10.46,33.11-30.57l33.5-96.35c1.39-3.82,2.18-6.84,2.18-9.25,0-3.62-3.37-13.28-14.87-13.28-7.93,0-11.89,5.64-13.88,13.08L475,119.28h-.4Zm80.89,84.68c0,9.65,5.74,14.68,14.47,14.68s14.47-5,14.47-14.68V14.68C565.82,5,560.07,0,551.35,0s-14.47,5-14.47,14.68ZM639.57,39.63C604.68,39.63,586,63.76,586,94.74c0,29.37,14.08,55.31,53.53,55.31s53.53-25.94,53.53-55.31C693.1,63.76,674.47,39.63,639.57,39.63Zm0,88.7c-17.25,0-24.58-15.69-24.58-33.59,0-19.11,7.73-33.39,24.58-33.39s24.59,14.28,24.59,33.39C664.16,112.64,656.82,128.33,639.57,128.33Z"/></g></g></svg>