<svg width="359" height="375" viewBox="0 0 359 375" fill="none" xmlns="http://www.w3.org/2000/svg">
<rect width="359" height="375" rx="20" fill="white"/>
<path d="M164.805 36.2216H162.146C162.044 35.6534 161.854 35.1534 161.575 34.7216C161.297 34.2898 160.956 33.9233 160.553 33.6222C160.149 33.321 159.697 33.0937 159.197 32.9403C158.703 32.7869 158.178 32.7102 157.621 32.7102C156.615 32.7102 155.714 32.9631 154.919 33.4688C154.129 33.9744 153.504 34.7159 153.044 35.6932C152.589 36.6705 152.362 37.8636 152.362 39.2727C152.362 40.6932 152.589 41.892 153.044 42.8693C153.504 43.8466 154.132 44.5852 154.928 45.0852C155.723 45.5852 156.618 45.8352 157.612 45.8352C158.163 45.8352 158.686 45.7614 159.18 45.6136C159.68 45.4602 160.132 45.2358 160.536 44.9403C160.939 44.6449 161.28 44.2841 161.558 43.858C161.842 43.4261 162.038 42.9318 162.146 42.375L164.805 42.3835C164.663 43.2415 164.388 44.0312 163.979 44.7528C163.575 45.4688 163.055 46.0881 162.419 46.6108C161.788 47.1278 161.067 47.5284 160.254 47.8125C159.442 48.0966 158.555 48.2386 157.595 48.2386C156.084 48.2386 154.737 47.8807 153.555 47.1648C152.374 46.4432 151.442 45.4119 150.76 44.071C150.084 42.7301 149.746 41.1307 149.746 39.2727C149.746 37.4091 150.087 35.8097 150.768 34.4744C151.45 33.1335 152.382 32.1051 153.564 31.3892C154.746 30.6676 156.089 30.3068 157.595 30.3068C158.521 30.3068 159.385 30.4403 160.186 30.7074C160.993 30.9687 161.717 31.3551 162.359 31.8665C163.001 32.3722 163.533 32.9915 163.953 33.7244C164.374 34.4517 164.658 35.2841 164.805 36.2216ZM173.266 48.2642C172.039 48.2642 170.968 47.983 170.053 47.4205C169.138 46.858 168.428 46.071 167.923 45.0597C167.417 44.0483 167.164 42.8665 167.164 41.5142C167.164 40.1562 167.417 38.9687 167.923 37.9517C168.428 36.9347 169.138 36.1449 170.053 35.5824C170.968 35.0199 172.039 34.7386 173.266 34.7386C174.494 34.7386 175.565 35.0199 176.479 35.5824C177.394 36.1449 178.104 36.9347 178.61 37.9517C179.116 38.9687 179.369 40.1562 179.369 41.5142C179.369 42.8665 179.116 44.0483 178.61 45.0597C178.104 46.071 177.394 46.858 176.479 47.4205C175.565 47.983 174.494 48.2642 173.266 48.2642ZM173.275 46.125C174.07 46.125 174.729 45.9148 175.252 45.4943C175.775 45.0739 176.161 44.5142 176.411 43.8153C176.667 43.1165 176.795 42.3466 176.795 41.5057C176.795 40.6705 176.667 39.9034 176.411 39.2045C176.161 38.5 175.775 37.9347 175.252 37.5085C174.729 37.0824 174.07 36.8693 173.275 36.8693C172.474 36.8693 171.809 37.0824 171.281 37.5085C170.758 37.9347 170.369 38.5 170.113 39.2045C169.863 39.9034 169.738 40.6705 169.738 41.5057C169.738 42.3466 169.863 43.1165 170.113 43.8153C170.369 44.5142 170.758 45.0739 171.281 45.4943C171.809 45.9148 172.474 46.125 173.275 46.125ZM187.114 48.2557C186.057 48.2557 185.114 47.9858 184.284 47.446C183.46 46.9006 182.813 46.125 182.341 45.1193C181.875 44.108 181.642 42.8949 181.642 41.4801C181.642 40.0653 181.878 38.8551 182.349 37.8494C182.827 36.8437 183.48 36.0739 184.31 35.5398C185.139 35.0057 186.08 34.7386 187.131 34.7386C187.943 34.7386 188.597 34.875 189.091 35.1477C189.591 35.4148 189.977 35.7273 190.25 36.0852C190.528 36.4432 190.744 36.7585 190.898 37.0312H191.051V30.5455H193.599V48H191.111V45.9631H190.898C190.744 46.2415 190.523 46.5597 190.233 46.9176C189.949 47.2756 189.557 47.5881 189.057 47.8551C188.557 48.1222 187.909 48.2557 187.114 48.2557ZM187.676 46.0824C188.409 46.0824 189.028 45.8892 189.534 45.5028C190.045 45.1108 190.432 44.5682 190.693 43.875C190.96 43.1818 191.094 42.375 191.094 41.4545C191.094 40.5455 190.963 39.75 190.702 39.0682C190.44 38.3864 190.057 37.8551 189.551 37.4744C189.045 37.0937 188.42 36.9034 187.676 36.9034C186.909 36.9034 186.27 37.1023 185.759 37.5C185.247 37.8977 184.861 38.4403 184.599 39.1278C184.344 39.8153 184.216 40.5909 184.216 41.4545C184.216 42.3295 184.347 43.1165 184.608 43.8153C184.869 44.5142 185.256 45.0682 185.767 45.4773C186.284 45.8807 186.92 46.0824 187.676 46.0824ZM202.879 48.2642C201.589 48.2642 200.478 47.9886 199.546 47.4375C198.62 46.8807 197.904 46.0994 197.398 45.0938C196.898 44.0824 196.648 42.8977 196.648 41.5398C196.648 40.1989 196.898 39.017 197.398 37.9943C197.904 36.9716 198.609 36.1733 199.512 35.5994C200.421 35.0256 201.484 34.7386 202.7 34.7386C203.438 34.7386 204.154 34.8608 204.847 35.1051C205.54 35.3494 206.163 35.733 206.714 36.2557C207.265 36.7784 207.7 37.4574 208.018 38.2926C208.336 39.1222 208.495 40.1307 208.495 41.3182V42.2216H198.089V40.3125H205.998C205.998 39.642 205.862 39.0483 205.589 38.5312C205.316 38.0085 204.933 37.5966 204.438 37.2955C203.95 36.9943 203.376 36.8438 202.717 36.8438C202.001 36.8438 201.376 37.0199 200.842 37.3722C200.313 37.7187 199.904 38.1733 199.614 38.7358C199.33 39.2926 199.188 39.8977 199.188 40.5511V42.0426C199.188 42.9176 199.342 43.6619 199.648 44.2756C199.961 44.8892 200.396 45.358 200.952 45.6818C201.509 46 202.16 46.1591 202.904 46.1591C203.387 46.1591 203.827 46.0909 204.225 45.9545C204.623 45.8125 204.967 45.6023 205.256 45.3239C205.546 45.0455 205.768 44.7017 205.921 44.2926L208.333 44.7273C208.14 45.4375 207.793 46.0597 207.293 46.5938C206.799 47.1222 206.177 47.5341 205.427 47.8295C204.683 48.1193 203.833 48.2642 202.879 48.2642Z" fill="black"/>
<path d="M28.5904 82V72.48H29.5284V82H28.5904ZM31.6984 78.402H29.2484V77.618H31.6424C32.4171 77.618 33.0237 77.422 33.4624 77.03C33.9011 76.638 34.1204 76.106 34.1204 75.434C34.1204 74.762 33.9011 74.23 33.4624 73.838C33.0237 73.446 32.4264 73.25 31.6704 73.25H29.2484V72.48H31.6844C32.3751 72.48 32.9771 72.6013 33.4904 72.844C34.0037 73.0773 34.4004 73.4133 34.6804 73.852C34.9604 74.2907 35.1004 74.818 35.1004 75.434C35.1004 76.3673 34.7877 77.0953 34.1624 77.618C33.5464 78.1407 32.7251 78.402 31.6984 78.402ZM36.7772 82V71.92H37.6872V82H36.7772ZM45.5517 77.744L45.0477 78.234C45.0477 77.282 44.8424 76.5447 44.4317 76.022C44.0211 75.49 43.4471 75.224 42.7097 75.224C41.9537 75.224 41.3704 75.49 40.9597 76.022C40.5584 76.554 40.3577 77.3147 40.3577 78.304C40.3577 79.2747 40.5677 80.0307 40.9877 80.572C41.4171 81.104 42.0144 81.37 42.7797 81.37C43.3677 81.37 43.8577 81.2207 44.2497 80.922C44.6511 80.6233 44.9264 80.18 45.0757 79.592H46.0137C45.8084 80.46 45.4211 81.104 44.8517 81.524C44.2824 81.944 43.5917 82.154 42.7797 82.154C42.0797 82.154 41.4777 82 40.9737 81.692C40.4791 81.384 40.0964 80.9453 39.8257 80.376C39.5644 79.7973 39.4337 79.1067 39.4337 78.304C39.4337 77.464 39.5644 76.7593 39.8257 76.19C40.0964 75.6207 40.4744 75.1867 40.9597 74.888C41.4544 74.5893 42.0377 74.44 42.7097 74.44C43.3911 74.44 43.9744 74.594 44.4597 74.902C44.9451 75.2007 45.3184 75.63 45.5797 76.19C45.8411 76.7407 45.9717 77.408 45.9717 78.192V78.444H39.8257V77.744H45.5517ZM48.5811 77.002H47.6711C47.7551 76.4607 47.9184 75.9987 48.1611 75.616C48.4131 75.2333 48.7491 74.944 49.1691 74.748C49.5984 74.5427 50.1117 74.44 50.7091 74.44C51.3437 74.44 51.8664 74.5567 52.2771 74.79C52.6971 75.0233 53.0097 75.3547 53.2151 75.784C53.4204 76.2133 53.5231 76.7173 53.5231 77.296V80.264C53.5231 80.6747 53.5417 81.02 53.5791 81.3C53.6257 81.5707 53.7004 81.804 53.8031 82H52.8371C52.7344 81.8133 52.6691 81.58 52.6411 81.3C52.6224 81.02 52.6131 80.7493 52.6131 80.488V77.338C52.6131 76.6567 52.4544 76.134 52.1371 75.77C51.8197 75.406 51.3157 75.224 50.6251 75.224C50.0091 75.224 49.5331 75.3827 49.1971 75.7C48.8704 76.0173 48.6651 76.4513 48.5811 77.002ZM52.7671 77.59V78.276C51.8524 78.276 51.1057 78.318 50.5271 78.402C49.9484 78.486 49.5004 78.6073 49.1831 78.766C48.8657 78.9247 48.6464 79.1113 48.5251 79.326C48.4037 79.5407 48.3431 79.774 48.3431 80.026C48.3431 80.446 48.4971 80.7773 48.8051 81.02C49.1131 81.2533 49.5191 81.37 50.0231 81.37C50.5084 81.37 50.9471 81.2533 51.3391 81.02C51.7311 80.7773 52.0391 80.46 52.2631 80.068C52.4964 79.676 52.6131 79.2513 52.6131 78.794H53.1171C53.0797 79.382 52.9584 79.8907 52.7531 80.32C52.5477 80.7493 52.2864 81.0993 51.9691 81.37C51.6611 81.6313 51.3297 81.8273 50.9751 81.958C50.6297 82.0887 50.2844 82.154 49.9391 82.154C49.4257 82.154 48.9777 82.0747 48.5951 81.916C48.2217 81.7573 47.9324 81.524 47.7271 81.216C47.5217 80.8987 47.4191 80.5113 47.4191 80.054C47.4191 79.55 47.5544 79.13 47.8251 78.794C48.0957 78.458 48.4971 78.2013 49.0291 78.024C49.5517 77.8467 50.1024 77.73 50.6811 77.674C51.2597 77.618 51.9551 77.59 52.7671 77.59ZM56.2864 76.47C56.2864 76.806 56.3751 77.0627 56.5524 77.24C56.7298 77.4173 56.9631 77.548 57.2524 77.632C57.5418 77.716 57.8591 77.7813 58.2044 77.828C58.5591 77.8747 58.9091 77.9353 59.2544 78.01C59.5998 78.0753 59.9171 78.1733 60.2064 78.304C60.4958 78.4347 60.7291 78.6307 60.9064 78.892C61.0838 79.144 61.1724 79.4893 61.1724 79.928C61.1724 80.3853 61.0511 80.782 60.8084 81.118C60.5658 81.454 60.2298 81.7107 59.8004 81.888C59.3711 82.0653 58.8811 82.154 58.3304 82.154C57.4718 82.154 56.7624 81.944 56.2024 81.524C55.6424 81.0947 55.2924 80.4507 55.1524 79.592H56.0624C56.1558 80.18 56.4031 80.6327 56.8044 80.95C57.2058 81.2673 57.7238 81.426 58.3584 81.426C58.9744 81.426 59.4458 81.2907 59.7724 81.02C60.0991 80.7493 60.2624 80.4087 60.2624 79.998C60.2624 79.662 60.1738 79.4053 59.9964 79.228C59.8191 79.0507 59.5858 78.92 59.2964 78.836C59.0164 78.752 58.7038 78.6867 58.3584 78.64C58.0131 78.584 57.6678 78.5233 57.3224 78.458C56.9771 78.3833 56.6598 78.2807 56.3704 78.15C56.0904 78.0193 55.8618 77.828 55.6844 77.576C55.5071 77.3147 55.4184 76.9693 55.4184 76.54C55.4184 76.1573 55.5118 75.812 55.6984 75.504C55.8851 75.1867 56.1698 74.93 56.5524 74.734C56.9444 74.538 57.4298 74.44 58.0084 74.44C58.5218 74.44 58.9838 74.5287 59.3944 74.706C59.8051 74.8833 60.1411 75.1633 60.4024 75.546C60.6731 75.9193 60.8411 76.4047 60.9064 77.002H59.9964C59.9031 76.3487 59.6791 75.882 59.3244 75.602C58.9698 75.322 58.5124 75.182 57.9524 75.182C57.4204 75.182 57.0098 75.3033 56.7204 75.546C56.4311 75.7887 56.2864 76.0967 56.2864 76.47ZM68.5068 77.744L68.0028 78.234C68.0028 77.282 67.7975 76.5447 67.3868 76.022C66.9761 75.49 66.4021 75.224 65.6648 75.224C64.9088 75.224 64.3255 75.49 63.9148 76.022C63.5135 76.554 63.3128 77.3147 63.3128 78.304C63.3128 79.2747 63.5228 80.0307 63.9428 80.572C64.3721 81.104 64.9695 81.37 65.7348 81.37C66.3228 81.37 66.8128 81.2207 67.2048 80.922C67.6061 80.6233 67.8815 80.18 68.0308 79.592H68.9688C68.7635 80.46 68.3761 81.104 67.8068 81.524C67.2375 81.944 66.5468 82.154 65.7348 82.154C65.0348 82.154 64.4328 82 63.9288 81.692C63.4341 81.384 63.0515 80.9453 62.7808 80.376C62.5195 79.7973 62.3888 79.1067 62.3888 78.304C62.3888 77.464 62.5195 76.7593 62.7808 76.19C63.0515 75.6207 63.4295 75.1867 63.9148 74.888C64.4095 74.5893 64.9928 74.44 65.6648 74.44C66.3461 74.44 66.9295 74.594 67.4148 74.902C67.9001 75.2007 68.2735 75.63 68.5348 76.19C68.7961 76.7407 68.9268 77.408 68.9268 78.192V78.444H62.7808V77.744H68.5068ZM79.3349 77.744L78.8309 78.234C78.8309 77.282 78.6256 76.5447 78.2149 76.022C77.8043 75.49 77.2303 75.224 76.4929 75.224C75.7369 75.224 75.1536 75.49 74.7429 76.022C74.3416 76.554 74.1409 77.3147 74.1409 78.304C74.1409 79.2747 74.3509 80.0307 74.7709 80.572C75.2003 81.104 75.7976 81.37 76.5629 81.37C77.1509 81.37 77.6409 81.2207 78.0329 80.922C78.4343 80.6233 78.7096 80.18 78.8589 79.592H79.7969C79.5916 80.46 79.2043 81.104 78.6349 81.524C78.0656 81.944 77.3749 82.154 76.5629 82.154C75.8629 82.154 75.2609 82 74.7569 81.692C74.2623 81.384 73.8796 80.9453 73.6089 80.376C73.3476 79.7973 73.2169 79.1067 73.2169 78.304C73.2169 77.464 73.3476 76.7593 73.6089 76.19C73.8796 75.6207 74.2576 75.1867 74.7429 74.888C75.2376 74.5893 75.8209 74.44 76.4929 74.44C77.1743 74.44 77.7576 74.594 78.2429 74.902C78.7283 75.2007 79.1016 75.63 79.3629 76.19C79.6243 76.7407 79.7549 77.408 79.7549 78.192V78.444H73.6089V77.744H79.3349ZM81.5663 82V74.594H82.4763V82H81.5663ZM82.4763 77.576H82.0143C82.0609 76.904 82.2103 76.3347 82.4623 75.868C82.7143 75.4013 83.0456 75.0467 83.4563 74.804C83.8763 74.5613 84.3523 74.44 84.8843 74.44C85.4163 74.44 85.8643 74.5427 86.2283 74.748C86.5923 74.944 86.8676 75.238 87.0543 75.63C87.2503 76.0127 87.3483 76.484 87.3483 77.044V82H86.4523V77.24C86.4523 76.8387 86.3869 76.4887 86.2563 76.19C86.1256 75.882 85.9296 75.644 85.6683 75.476C85.4069 75.2987 85.0663 75.21 84.6463 75.21C84.3009 75.21 83.9929 75.28 83.7223 75.42C83.4516 75.56 83.2229 75.7467 83.0363 75.98C82.8589 76.204 82.7189 76.456 82.6163 76.736C82.5229 77.016 82.4763 77.296 82.4763 77.576ZM89.6496 79.97V72.886H90.5596V79.97C90.5596 80.4553 90.653 80.8147 90.8396 81.048C91.0356 81.272 91.4136 81.384 91.9736 81.384H92.1976V82.042C92.1416 82.07 92.0576 82.0887 91.9456 82.098C91.8336 82.1073 91.7123 82.112 91.5816 82.112C90.9096 82.112 90.4196 81.9393 90.1116 81.594C89.8036 81.2487 89.6496 80.7073 89.6496 79.97ZM88.5296 75.322V74.594H92.2116V75.322H88.5296ZM99.2138 77.744L98.7098 78.234C98.7098 77.282 98.5045 76.5447 98.0938 76.022C97.6832 75.49 97.1092 75.224 96.3718 75.224C95.6158 75.224 95.0325 75.49 94.6218 76.022C94.2205 76.554 94.0198 77.3147 94.0198 78.304C94.0198 79.2747 94.2298 80.0307 94.6498 80.572C95.0792 81.104 95.6765 81.37 96.4418 81.37C97.0298 81.37 97.5198 81.2207 97.9118 80.922C98.3132 80.6233 98.5885 80.18 98.7378 79.592H99.6758C99.4705 80.46 99.0832 81.104 98.5138 81.524C97.9445 81.944 97.2538 82.154 96.4418 82.154C95.7418 82.154 95.1398 82 94.6358 81.692C94.1412 81.384 93.7585 80.9453 93.4878 80.376C93.2265 79.7973 93.0958 79.1067 93.0958 78.304C93.0958 77.464 93.2265 76.7593 93.4878 76.19C93.7585 75.6207 94.1365 75.1867 94.6218 74.888C95.1165 74.5893 95.6998 74.44 96.3718 74.44C97.0532 74.44 97.6365 74.594 98.1218 74.902C98.6072 75.2007 98.9805 75.63 99.2418 76.19C99.5032 76.7407 99.6338 77.408 99.6338 78.192V78.444H93.4878V77.744H99.2138ZM101.445 82V74.594H102.355V82H101.445ZM102.355 77.744H101.921C101.968 77.0067 102.117 76.3953 102.369 75.91C102.621 75.4153 102.943 75.0467 103.335 74.804C103.727 74.5613 104.161 74.44 104.637 74.44C104.777 74.44 104.908 74.454 105.029 74.482C105.151 74.51 105.244 74.5473 105.309 74.594V75.42C105.216 75.3827 105.104 75.3547 104.973 75.336C104.843 75.3173 104.712 75.308 104.581 75.308C104.199 75.308 103.867 75.3733 103.587 75.504C103.317 75.6347 103.088 75.8167 102.901 76.05C102.715 76.274 102.575 76.5307 102.481 76.82C102.397 77.1093 102.355 77.4173 102.355 77.744ZM109.583 79.97V72.886H110.493V79.97C110.493 80.4553 110.587 80.8147 110.773 81.048C110.969 81.272 111.347 81.384 111.907 81.384H112.131V82.042C112.075 82.07 111.991 82.0887 111.879 82.098C111.767 82.1073 111.646 82.112 111.515 82.112C110.843 82.112 110.353 81.9393 110.045 81.594C109.737 81.2487 109.583 80.7073 109.583 79.97ZM108.463 75.322V74.594H112.145V75.322H108.463ZM113.435 82V71.92H114.345V82H113.435ZM114.345 77.576H113.883C113.93 76.904 114.079 76.3347 114.331 75.868C114.583 75.4013 114.915 75.0467 115.325 74.804C115.745 74.5613 116.221 74.44 116.753 74.44C117.285 74.44 117.733 74.5427 118.097 74.748C118.461 74.944 118.737 75.238 118.923 75.63C119.119 76.0127 119.217 76.484 119.217 77.044V82H118.321V77.24C118.321 76.8387 118.256 76.4887 118.125 76.19C117.995 75.882 117.799 75.644 117.537 75.476C117.276 75.2987 116.935 75.21 116.515 75.21C116.17 75.21 115.862 75.28 115.591 75.42C115.321 75.56 115.092 75.7467 114.905 75.98C114.728 76.204 114.588 76.456 114.485 76.736C114.392 77.016 114.345 77.296 114.345 77.576ZM127.091 77.744L126.587 78.234C126.587 77.282 126.381 76.5447 125.971 76.022C125.56 75.49 124.986 75.224 124.249 75.224C123.493 75.224 122.909 75.49 122.499 76.022C122.097 76.554 121.897 77.3147 121.897 78.304C121.897 79.2747 122.107 80.0307 122.527 80.572C122.956 81.104 123.553 81.37 124.319 81.37C124.907 81.37 125.397 81.2207 125.789 80.922C126.19 80.6233 126.465 80.18 126.615 79.592H127.553C127.347 80.46 126.96 81.104 126.391 81.524C125.821 81.944 125.131 82.154 124.319 82.154C123.619 82.154 123.017 82 122.513 81.692C122.018 81.384 121.635 80.9453 121.365 80.376C121.103 79.7973 120.973 79.1067 120.973 78.304C120.973 77.464 121.103 76.7593 121.365 76.19C121.635 75.6207 122.013 75.1867 122.499 74.888C122.993 74.5893 123.577 74.44 124.249 74.44C124.93 74.44 125.513 74.594 125.999 74.902C126.484 75.2007 126.857 75.63 127.119 76.19C127.38 76.7407 127.511 77.408 127.511 78.192V78.444H121.365V77.744H127.091ZM132.319 73.95C132.319 73.2033 132.468 72.662 132.767 72.326C133.075 71.9807 133.565 71.808 134.237 71.808C134.349 71.808 134.452 71.8173 134.545 71.836C134.638 71.8453 134.713 71.8593 134.769 71.878V72.536H134.629C134.078 72.536 133.705 72.6527 133.509 72.886C133.322 73.11 133.229 73.4647 133.229 73.95V82H132.319V73.95ZM131.199 75.322V74.594H134.769V75.322H131.199ZM138.783 82.154C138.092 82.154 137.499 82 137.005 81.692C136.51 81.384 136.132 80.9453 135.871 80.376C135.609 79.7973 135.479 79.1067 135.479 78.304C135.479 77.464 135.609 76.7593 135.871 76.19C136.141 75.6207 136.524 75.1867 137.019 74.888C137.513 74.5893 138.101 74.44 138.783 74.44C139.473 74.44 140.061 74.594 140.547 74.902C141.041 75.21 141.419 75.6533 141.681 76.232C141.942 76.8107 142.073 77.5013 142.073 78.304C142.073 79.1347 141.937 79.8347 141.667 80.404C141.405 80.9733 141.027 81.4073 140.533 81.706C140.047 82.0047 139.464 82.154 138.783 82.154ZM138.783 81.37C139.548 81.37 140.131 81.104 140.533 80.572C140.943 80.04 141.149 79.284 141.149 78.304C141.149 77.324 140.943 76.568 140.533 76.036C140.122 75.4947 139.539 75.224 138.783 75.224C138.017 75.224 137.429 75.49 137.019 76.022C136.608 76.554 136.403 77.3147 136.403 78.304C136.403 79.2747 136.608 80.0307 137.019 80.572C137.439 81.104 138.027 81.37 138.783 81.37ZM149.54 74.594V82H148.63V74.594H149.54ZM148.63 79.018H149.078C149.041 79.6993 148.896 80.2733 148.644 80.74C148.392 81.1973 148.061 81.5473 147.65 81.79C147.239 82.0327 146.773 82.154 146.25 82.154C145.746 82.154 145.312 82.056 144.948 81.86C144.584 81.6547 144.304 81.3607 144.108 80.978C143.921 80.586 143.828 80.11 143.828 79.55V74.594H144.738V79.368C144.738 79.76 144.799 80.11 144.92 80.418C145.041 80.7167 145.233 80.95 145.494 81.118C145.755 81.286 146.091 81.37 146.502 81.37C146.838 81.37 147.137 81.3047 147.398 81.174C147.669 81.034 147.893 80.8473 148.07 80.614C148.247 80.3807 148.383 80.1287 148.476 79.858C148.579 79.578 148.63 79.298 148.63 79.018ZM151.689 82V74.594H152.599V82H151.689ZM152.599 77.744H152.165C152.212 77.0067 152.361 76.3953 152.613 75.91C152.865 75.4153 153.187 75.0467 153.579 74.804C153.971 74.5613 154.405 74.44 154.881 74.44C155.021 74.44 155.152 74.454 155.273 74.482C155.395 74.51 155.488 74.5473 155.553 74.594V75.42C155.46 75.3827 155.348 75.3547 155.217 75.336C155.087 75.3173 154.956 75.308 154.825 75.308C154.443 75.308 154.111 75.3733 153.831 75.504C153.561 75.6347 153.332 75.8167 153.145 76.05C152.959 76.274 152.819 76.5307 152.725 76.82C152.641 77.1093 152.599 77.4173 152.599 77.744ZM162.347 82.154C161.713 82.154 161.162 82 160.695 81.692C160.238 81.384 159.888 80.9453 159.645 80.376C159.403 79.7973 159.281 79.1067 159.281 78.304C159.281 77.0533 159.557 76.0967 160.107 75.434C160.658 74.7713 161.405 74.44 162.347 74.44C163.215 74.44 163.901 74.776 164.405 75.448C164.909 76.1107 165.161 77.0627 165.161 78.304C165.161 79.0973 165.045 79.7833 164.811 80.362C164.587 80.9407 164.265 81.384 163.845 81.692C163.425 82 162.926 82.154 162.347 82.154ZM162.403 81.37C163.122 81.37 163.668 81.1087 164.041 80.586C164.415 80.054 164.601 79.2933 164.601 78.304C164.601 77.324 164.41 76.568 164.027 76.036C163.645 75.4947 163.103 75.224 162.403 75.224C161.694 75.224 161.148 75.49 160.765 76.022C160.392 76.554 160.205 77.3147 160.205 78.304C160.205 79.2747 160.397 80.0307 160.779 80.572C161.171 81.104 161.713 81.37 162.403 81.37ZM164.601 82V71.92H165.511V82H164.601ZM167.672 82V74.594H168.582V82H167.672ZM167.672 73.516V71.92H168.582V73.516H167.672ZM173.296 82.07C172.68 82.07 172.148 81.9207 171.7 81.622C171.262 81.314 170.921 80.8753 170.678 80.306C170.445 79.7367 170.328 79.0553 170.328 78.262C170.328 77.0207 170.59 76.0733 171.112 75.42C171.644 74.7667 172.372 74.44 173.296 74.44C174.267 74.44 174.995 74.776 175.48 75.448C175.966 76.1107 176.208 77.044 176.208 78.248C176.208 79.4987 175.947 80.4507 175.424 81.104C174.902 81.748 174.192 82.07 173.296 82.07ZM173.45 81.286C174.169 81.286 174.715 81.0247 175.088 80.502C175.462 79.9793 175.648 79.228 175.648 78.248C175.648 77.296 175.457 76.554 175.074 76.022C174.692 75.49 174.15 75.224 173.45 75.224C172.741 75.224 172.195 75.4853 171.812 76.008C171.439 76.5307 171.252 77.282 171.252 78.262C171.252 79.2233 171.444 79.97 171.826 80.502C172.209 81.0247 172.75 81.286 173.45 81.286ZM176.558 82.266C176.558 82.9567 176.428 83.5213 176.166 83.96C175.914 84.3987 175.569 84.7207 175.13 84.926C174.692 85.1407 174.197 85.248 173.646 85.248C172.797 85.248 172.097 85.038 171.546 84.618C170.996 84.2073 170.655 83.5913 170.524 82.77H171.434C171.518 83.3207 171.756 83.7453 172.148 84.044C172.55 84.3427 173.049 84.492 173.646 84.492C174.272 84.492 174.762 84.3147 175.116 83.96C175.471 83.6053 175.648 83.05 175.648 82.294V74.594H176.558V82.266ZM178.732 82V74.594H179.642V82H178.732ZM178.732 73.516V71.92H179.642V73.516H178.732ZM181.935 79.97V72.886H182.845V79.97C182.845 80.4553 182.938 80.8147 183.125 81.048C183.321 81.272 183.699 81.384 184.259 81.384H184.483V82.042C184.427 82.07 184.343 82.0887 184.231 82.098C184.119 82.1073 183.997 82.112 183.867 82.112C183.195 82.112 182.705 81.9393 182.397 81.594C182.089 81.2487 181.935 80.7073 181.935 79.97ZM180.815 75.322V74.594H184.497V75.322H180.815ZM194.608 77.1H193.698C193.586 76.484 193.334 76.0173 192.942 75.7C192.559 75.3827 192.088 75.224 191.528 75.224C190.772 75.224 190.193 75.49 189.792 76.022C189.39 76.554 189.19 77.3147 189.19 78.304C189.19 79.284 189.395 80.04 189.806 80.572C190.226 81.104 190.814 81.37 191.57 81.37C192.13 81.37 192.601 81.2207 192.984 80.922C193.366 80.614 193.623 80.1567 193.754 79.55H194.664C194.486 80.4647 194.118 81.1273 193.558 81.538C193.007 81.9487 192.335 82.154 191.542 82.154C190.86 82.154 190.272 82 189.778 81.692C189.292 81.384 188.919 80.9453 188.658 80.376C188.396 79.7973 188.266 79.1067 188.266 78.304C188.266 77.464 188.396 76.7593 188.658 76.19C188.919 75.6207 189.292 75.1867 189.778 74.888C190.272 74.5893 190.856 74.44 191.528 74.44C192.069 74.44 192.554 74.5427 192.984 74.748C193.413 74.944 193.768 75.2427 194.048 75.644C194.337 76.036 194.524 76.5213 194.608 77.1ZM199.253 82.154C198.563 82.154 197.97 82 197.475 81.692C196.981 81.384 196.603 80.9453 196.341 80.376C196.08 79.7973 195.949 79.1067 195.949 78.304C195.949 77.464 196.08 76.7593 196.341 76.19C196.612 75.6207 196.995 75.1867 197.489 74.888C197.984 74.5893 198.572 74.44 199.253 74.44C199.944 74.44 200.532 74.594 201.017 74.902C201.512 75.21 201.89 75.6533 202.151 76.232C202.413 76.8107 202.543 77.5013 202.543 78.304C202.543 79.1347 202.408 79.8347 202.137 80.404C201.876 80.9733 201.498 81.4073 201.003 81.706C200.518 82.0047 199.935 82.154 199.253 82.154ZM199.253 81.37C200.019 81.37 200.602 81.104 201.003 80.572C201.414 80.04 201.619 79.284 201.619 78.304C201.619 77.324 201.414 76.568 201.003 76.036C200.593 75.4947 200.009 75.224 199.253 75.224C198.488 75.224 197.9 75.49 197.489 76.022C197.079 76.554 196.873 77.3147 196.873 78.304C196.873 79.2747 197.079 80.0307 197.489 80.572C197.909 81.104 198.497 81.37 199.253 81.37ZM206.959 82.154C206.324 82.154 205.773 82 205.307 81.692C204.849 81.384 204.499 80.9453 204.257 80.376C204.014 79.7973 203.893 79.1067 203.893 78.304C203.893 77.0533 204.168 76.0967 204.719 75.434C205.269 74.7713 206.016 74.44 206.959 74.44C207.827 74.44 208.513 74.776 209.017 75.448C209.521 76.1107 209.773 77.0627 209.773 78.304C209.773 79.0973 209.656 79.7833 209.423 80.362C209.199 80.9407 208.877 81.384 208.457 81.692C208.037 82 207.537 82.154 206.959 82.154ZM207.015 81.37C207.733 81.37 208.279 81.1087 208.653 80.586C209.026 80.054 209.213 79.2933 209.213 78.304C209.213 77.324 209.021 76.568 208.639 76.036C208.256 75.4947 207.715 75.224 207.015 75.224C206.305 75.224 205.759 75.49 205.377 76.022C205.003 76.554 204.817 77.3147 204.817 78.304C204.817 79.2747 205.008 80.0307 205.391 80.572C205.783 81.104 206.324 81.37 207.015 81.37ZM209.213 82V71.92H210.123V82H209.213ZM217.995 77.744L217.491 78.234C217.491 77.282 217.286 76.5447 216.875 76.022C216.464 75.49 215.89 75.224 215.153 75.224C214.397 75.224 213.814 75.49 213.403 76.022C213.002 76.554 212.801 77.3147 212.801 78.304C212.801 79.2747 213.011 80.0307 213.431 80.572C213.86 81.104 214.458 81.37 215.223 81.37C215.811 81.37 216.301 81.2207 216.693 80.922C217.094 80.6233 217.37 80.18 217.519 79.592H218.457C218.252 80.46 217.864 81.104 217.295 81.524C216.726 81.944 216.035 82.154 215.223 82.154C214.523 82.154 213.921 82 213.417 81.692C212.922 81.384 212.54 80.9453 212.269 80.376C212.008 79.7973 211.877 79.1067 211.877 78.304C211.877 77.464 212.008 76.7593 212.269 76.19C212.54 75.6207 212.918 75.1867 213.403 74.888C213.898 74.5893 214.481 74.44 215.153 74.44C215.834 74.44 216.418 74.594 216.903 74.902C217.388 75.2007 217.762 75.63 218.023 76.19C218.284 76.7407 218.415 77.408 218.415 78.192V78.444H212.269V77.744H217.995ZM223.671 76.47C223.671 76.806 223.76 77.0627 223.937 77.24C224.115 77.4173 224.348 77.548 224.637 77.632C224.927 77.716 225.244 77.7813 225.589 77.828C225.944 77.8747 226.294 77.9353 226.639 78.01C226.985 78.0753 227.302 78.1733 227.591 78.304C227.881 78.4347 228.114 78.6307 228.291 78.892C228.469 79.144 228.557 79.4893 228.557 79.928C228.557 80.3853 228.436 80.782 228.193 81.118C227.951 81.454 227.615 81.7107 227.185 81.888C226.756 82.0653 226.266 82.154 225.715 82.154C224.857 82.154 224.147 81.944 223.587 81.524C223.027 81.0947 222.677 80.4507 222.537 79.592H223.447C223.541 80.18 223.788 80.6327 224.189 80.95C224.591 81.2673 225.109 81.426 225.743 81.426C226.359 81.426 226.831 81.2907 227.157 81.02C227.484 80.7493 227.647 80.4087 227.647 79.998C227.647 79.662 227.559 79.4053 227.381 79.228C227.204 79.0507 226.971 78.92 226.681 78.836C226.401 78.752 226.089 78.6867 225.743 78.64C225.398 78.584 225.053 78.5233 224.707 78.458C224.362 78.3833 224.045 78.2807 223.755 78.15C223.475 78.0193 223.247 77.828 223.069 77.576C222.892 77.3147 222.803 76.9693 222.803 76.54C222.803 76.1573 222.897 75.812 223.083 75.504C223.27 75.1867 223.555 74.93 223.937 74.734C224.329 74.538 224.815 74.44 225.393 74.44C225.907 74.44 226.369 74.5287 226.779 74.706C227.19 74.8833 227.526 75.1633 227.787 75.546C228.058 75.9193 228.226 76.4047 228.291 77.002H227.381C227.288 76.3487 227.064 75.882 226.709 75.602C226.355 75.322 225.897 75.182 225.337 75.182C224.805 75.182 224.395 75.3033 224.105 75.546C223.816 75.7887 223.671 76.0967 223.671 76.47ZM235.892 77.744L235.388 78.234C235.388 77.282 235.182 76.5447 234.772 76.022C234.361 75.49 233.787 75.224 233.05 75.224C232.294 75.224 231.71 75.49 231.3 76.022C230.898 76.554 230.698 77.3147 230.698 78.304C230.698 79.2747 230.908 80.0307 231.328 80.572C231.757 81.104 232.354 81.37 233.12 81.37C233.708 81.37 234.198 81.2207 234.59 80.922C234.991 80.6233 235.266 80.18 235.416 79.592H236.354C236.148 80.46 235.761 81.104 235.192 81.524C234.622 81.944 233.932 82.154 233.12 82.154C232.42 82.154 231.818 82 231.314 81.692C230.819 81.384 230.436 80.9453 230.166 80.376C229.904 79.7973 229.774 79.1067 229.774 78.304C229.774 77.464 229.904 76.7593 230.166 76.19C230.436 75.6207 230.814 75.1867 231.3 74.888C231.794 74.5893 232.378 74.44 233.05 74.44C233.731 74.44 234.314 74.594 234.8 74.902C235.285 75.2007 235.658 75.63 235.92 76.19C236.181 76.7407 236.312 77.408 236.312 78.192V78.444H230.166V77.744H235.892ZM238.123 82V74.594H239.033V82H238.123ZM239.033 77.576H238.571C238.618 76.904 238.767 76.3347 239.019 75.868C239.271 75.4013 239.602 75.0467 240.013 74.804C240.433 74.5613 240.909 74.44 241.441 74.44C241.973 74.44 242.421 74.5427 242.785 74.748C243.149 74.944 243.424 75.238 243.611 75.63C243.807 76.0127 243.905 76.484 243.905 77.044V82H243.009V77.24C243.009 76.8387 242.944 76.4887 242.813 76.19C242.682 75.882 242.486 75.644 242.225 75.476C241.964 75.2987 241.623 75.21 241.203 75.21C240.858 75.21 240.55 75.28 240.279 75.42C240.008 75.56 239.78 75.7467 239.593 75.98C239.416 76.204 239.276 76.456 239.173 76.736C239.08 77.016 239.033 77.296 239.033 77.576ZM246.206 79.97V72.886H247.116V79.97C247.116 80.4553 247.21 80.8147 247.396 81.048C247.592 81.272 247.97 81.384 248.53 81.384H248.754V82.042C248.698 82.07 248.614 82.0887 248.502 82.098C248.39 82.1073 248.269 82.112 248.138 82.112C247.466 82.112 246.976 81.9393 246.668 81.594C246.36 81.2487 246.206 80.7073 246.206 79.97ZM245.086 75.322V74.594H248.768V75.322H245.086ZM253.083 79.97V72.886H253.993V79.97C253.993 80.4553 254.087 80.8147 254.273 81.048C254.469 81.272 254.847 81.384 255.407 81.384H255.631V82.042C255.575 82.07 255.491 82.0887 255.379 82.098C255.267 82.1073 255.146 82.112 255.015 82.112C254.343 82.112 253.853 81.9393 253.545 81.594C253.237 81.2487 253.083 80.7073 253.083 79.97ZM251.963 75.322V74.594H255.645V75.322H251.963ZM259.833 82.154C259.143 82.154 258.55 82 258.055 81.692C257.561 81.384 257.183 80.9453 256.921 80.376C256.66 79.7973 256.529 79.1067 256.529 78.304C256.529 77.464 256.66 76.7593 256.921 76.19C257.192 75.6207 257.575 75.1867 258.069 74.888C258.564 74.5893 259.152 74.44 259.833 74.44C260.524 74.44 261.112 74.594 261.597 74.902C262.092 75.21 262.47 75.6533 262.731 76.232C262.993 76.8107 263.123 77.5013 263.123 78.304C263.123 79.1347 262.988 79.8347 262.717 80.404C262.456 80.9733 262.078 81.4073 261.583 81.706C261.098 82.0047 260.515 82.154 259.833 82.154ZM259.833 81.37C260.599 81.37 261.182 81.104 261.583 80.572C261.994 80.04 262.199 79.284 262.199 78.304C262.199 77.324 261.994 76.568 261.583 76.036C261.173 75.4947 260.589 75.224 259.833 75.224C259.068 75.224 258.48 75.49 258.069 76.022C257.659 76.554 257.453 77.3147 257.453 78.304C257.453 79.2747 257.659 80.0307 258.069 80.572C258.489 81.104 259.077 81.37 259.833 81.37ZM267.876 85.206C267.764 85.206 267.656 85.1967 267.554 85.178C267.451 85.1593 267.367 85.1407 267.302 85.122V84.422H267.624C267.857 84.422 268.053 84.4033 268.212 84.366C268.37 84.3287 268.515 84.2493 268.646 84.128C268.776 84.0067 268.912 83.8153 269.052 83.554C269.192 83.2927 269.355 82.9427 269.542 82.504L269.836 81.804L266.812 74.594H267.806L269.948 79.83L270.382 81.048H270.242L270.676 79.83L272.762 74.594H273.7L270.256 82.994C270.069 83.442 269.896 83.8107 269.738 84.1C269.579 84.3893 269.416 84.6133 269.248 84.772C269.08 84.94 268.884 85.052 268.66 85.108C268.445 85.1733 268.184 85.206 267.876 85.206ZM277.73 82.154C277.039 82.154 276.447 82 275.952 81.692C275.457 81.384 275.079 80.9453 274.818 80.376C274.557 79.7973 274.426 79.1067 274.426 78.304C274.426 77.464 274.557 76.7593 274.818 76.19C275.089 75.6207 275.471 75.1867 275.966 74.888C276.461 74.5893 277.049 74.44 277.73 74.44C278.421 74.44 279.009 74.594 279.494 74.902C279.989 75.21 280.367 75.6533 280.628 76.232C280.889 76.8107 281.02 77.5013 281.02 78.304C281.02 79.1347 280.885 79.8347 280.614 80.404C280.353 80.9733 279.975 81.4073 279.48 81.706C278.995 82.0047 278.411 82.154 277.73 82.154ZM277.73 81.37C278.495 81.37 279.079 81.104 279.48 80.572C279.891 80.04 280.096 79.284 280.096 78.304C280.096 77.324 279.891 76.568 279.48 76.036C279.069 75.4947 278.486 75.224 277.73 75.224C276.965 75.224 276.377 75.49 275.966 76.022C275.555 76.554 275.35 77.3147 275.35 78.304C275.35 79.2747 275.555 80.0307 275.966 80.572C276.386 81.104 276.974 81.37 277.73 81.37ZM288.487 74.594V82H287.577V74.594H288.487ZM287.577 79.018H288.025C287.988 79.6993 287.843 80.2733 287.591 80.74C287.339 81.1973 287.008 81.5473 286.597 81.79C286.187 82.0327 285.72 82.154 285.197 82.154C284.693 82.154 284.259 82.056 283.895 81.86C283.531 81.6547 283.251 81.3607 283.055 80.978C282.869 80.586 282.775 80.11 282.775 79.55V74.594H283.685V79.368C283.685 79.76 283.746 80.11 283.867 80.418C283.989 80.7167 284.18 80.95 284.441 81.118C284.703 81.286 285.039 81.37 285.449 81.37C285.785 81.37 286.084 81.3047 286.345 81.174C286.616 81.034 286.84 80.8473 287.017 80.614C287.195 80.3807 287.33 80.1287 287.423 79.858C287.526 79.578 287.577 79.298 287.577 79.018ZM290.637 82V74.594H291.547V82H290.637ZM291.547 77.744H291.113C291.159 77.0067 291.309 76.3953 291.561 75.91C291.813 75.4153 292.135 75.0467 292.527 74.804C292.919 74.5613 293.353 74.44 293.829 74.44C293.969 74.44 294.099 74.454 294.221 74.482C294.342 74.51 294.435 74.5473 294.501 74.594V75.42C294.407 75.3827 294.295 75.3547 294.165 75.336C294.034 75.3173 293.903 75.308 293.773 75.308C293.39 75.308 293.059 75.3733 292.779 75.504C292.508 75.6347 292.279 75.8167 292.093 76.05C291.906 76.274 291.766 76.5307 291.673 76.82C291.589 77.1093 291.547 77.4173 291.547 77.744ZM304.347 77.744L303.843 78.234C303.843 77.282 303.637 76.5447 303.227 76.022C302.816 75.49 302.242 75.224 301.505 75.224C300.749 75.224 300.165 75.49 299.755 76.022C299.353 76.554 299.153 77.3147 299.153 78.304C299.153 79.2747 299.363 80.0307 299.783 80.572C300.212 81.104 300.809 81.37 301.575 81.37C302.163 81.37 302.653 81.2207 303.045 80.922C303.446 80.6233 303.721 80.18 303.871 79.592H304.809C304.603 80.46 304.216 81.104 303.647 81.524C303.077 81.944 302.387 82.154 301.575 82.154C300.875 82.154 300.273 82 299.769 81.692C299.274 81.384 298.891 80.9453 298.621 80.376C298.359 79.7973 298.229 79.1067 298.229 78.304C298.229 77.464 298.359 76.7593 298.621 76.19C298.891 75.6207 299.269 75.1867 299.755 74.888C300.249 74.5893 300.833 74.44 301.505 74.44C302.186 74.44 302.769 74.594 303.255 74.902C303.74 75.2007 304.113 75.63 304.375 76.19C304.636 76.7407 304.767 77.408 304.767 78.192V78.444H298.621V77.744H304.347ZM306.578 82V74.594H307.488V82H306.578ZM307.488 77.576H307.026C307.073 76.904 307.213 76.3347 307.446 75.868C307.679 75.4013 307.992 75.0467 308.384 74.804C308.776 74.5613 309.215 74.44 309.7 74.44C310.185 74.44 310.596 74.5427 310.932 74.748C311.268 74.944 311.525 75.238 311.702 75.63C311.879 76.0127 311.968 76.484 311.968 77.044V82H311.058V77.24C311.058 76.8387 311.002 76.4887 310.89 76.19C310.778 75.882 310.601 75.644 310.358 75.476C310.125 75.2987 309.821 75.21 309.448 75.21C309.14 75.21 308.865 75.28 308.622 75.42C308.379 75.56 308.174 75.7467 308.006 75.98C307.838 76.204 307.707 76.456 307.614 76.736C307.53 77.016 307.488 77.296 307.488 77.576ZM311.968 77.576H311.408C311.455 76.904 311.599 76.3347 311.842 75.868C312.085 75.4013 312.402 75.0467 312.794 74.804C313.186 74.5613 313.629 74.44 314.124 74.44C314.619 74.44 315.039 74.5427 315.384 74.748C315.729 74.944 315.991 75.238 316.168 75.63C316.355 76.0127 316.448 76.484 316.448 77.044V82H315.538V77.24C315.538 76.8387 315.482 76.4887 315.37 76.19C315.258 75.882 315.081 75.644 314.838 75.476C314.605 75.2987 314.301 75.21 313.928 75.21C313.62 75.21 313.345 75.28 313.102 75.42C312.859 75.56 312.654 75.7467 312.486 75.98C312.318 76.204 312.187 76.456 312.094 76.736C312.01 77.016 311.968 77.296 311.968 77.576ZM319.407 77.002H318.497C318.581 76.4607 318.745 75.9987 318.987 75.616C319.239 75.2333 319.575 74.944 319.995 74.748C320.425 74.5427 320.938 74.44 321.535 74.44C322.17 74.44 322.693 74.5567 323.103 74.79C323.523 75.0233 323.836 75.3547 324.041 75.784C324.247 76.2133 324.349 76.7173 324.349 77.296V80.264C324.349 80.6747 324.368 81.02 324.405 81.3C324.452 81.5707 324.527 81.804 324.629 82H323.663C323.561 81.8133 323.495 81.58 323.467 81.3C323.449 81.02 323.439 80.7493 323.439 80.488V77.338C323.439 76.6567 323.281 76.134 322.963 75.77C322.646 75.406 322.142 75.224 321.451 75.224C320.835 75.224 320.359 75.3827 320.023 75.7C319.697 76.0173 319.491 76.4513 319.407 77.002ZM323.593 77.59V78.276C322.679 78.276 321.932 78.318 321.353 78.402C320.775 78.486 320.327 78.6073 320.009 78.766C319.692 78.9247 319.473 79.1113 319.351 79.326C319.23 79.5407 319.169 79.774 319.169 80.026C319.169 80.446 319.323 80.7773 319.631 81.02C319.939 81.2533 320.345 81.37 320.849 81.37C321.335 81.37 321.773 81.2533 322.165 81.02C322.557 80.7773 322.865 80.46 323.089 80.068C323.323 79.676 323.439 79.2513 323.439 78.794H323.943C323.906 79.382 323.785 79.8907 323.579 80.32C323.374 80.7493 323.113 81.0993 322.795 81.37C322.487 81.6313 322.156 81.8273 321.801 81.958C321.456 82.0887 321.111 82.154 320.765 82.154C320.252 82.154 319.804 82.0747 319.421 81.916C319.048 81.7573 318.759 81.524 318.553 81.216C318.348 80.8987 318.245 80.5113 318.245 80.054C318.245 79.55 318.381 79.13 318.651 78.794C318.922 78.458 319.323 78.2013 319.855 78.024C320.378 77.8467 320.929 77.73 321.507 77.674C322.086 77.618 322.781 77.59 323.593 77.59ZM326.553 82V74.594H327.463V82H326.553ZM326.553 73.516V71.92H327.463V73.516H326.553ZM329.615 82V71.92H330.525V82H329.615ZM155.892 95.002H154.982C155.066 94.4607 155.229 93.9987 155.472 93.616C155.724 93.2333 156.06 92.944 156.48 92.748C156.909 92.5427 157.422 92.44 158.02 92.44C158.654 92.44 159.177 92.5567 159.588 92.79C160.008 93.0233 160.32 93.3547 160.526 93.784C160.731 94.2133 160.834 94.7173 160.834 95.296V98.264C160.834 98.6747 160.852 99.02 160.89 99.3C160.936 99.5707 161.011 99.804 161.114 100H160.148C160.045 99.8133 159.98 99.58 159.952 99.3C159.933 99.02 159.924 98.7493 159.924 98.488V95.338C159.924 94.6567 159.765 94.134 159.448 93.77C159.13 93.406 158.626 93.224 157.936 93.224C157.32 93.224 156.844 93.3827 156.508 93.7C156.181 94.0173 155.976 94.4513 155.892 95.002ZM160.078 95.59V96.276C159.163 96.276 158.416 96.318 157.838 96.402C157.259 96.486 156.811 96.6073 156.494 96.766C156.176 96.9247 155.957 97.1113 155.836 97.326C155.714 97.5407 155.654 97.774 155.654 98.026C155.654 98.446 155.808 98.7773 156.116 99.02C156.424 99.2533 156.83 99.37 157.334 99.37C157.819 99.37 158.258 99.2533 158.65 99.02C159.042 98.7773 159.35 98.46 159.574 98.068C159.807 97.676 159.924 97.2513 159.924 96.794H160.428C160.39 97.382 160.269 97.8907 160.064 98.32C159.858 98.7493 159.597 99.0993 159.28 99.37C158.972 99.6313 158.64 99.8273 158.286 99.958C157.94 100.089 157.595 100.154 157.25 100.154C156.736 100.154 156.288 100.075 155.906 99.916C155.532 99.7573 155.243 99.524 155.038 99.216C154.832 98.8987 154.73 98.5113 154.73 98.054C154.73 97.55 154.865 97.13 155.136 96.794C155.406 96.458 155.808 96.2013 156.34 96.024C156.862 95.8467 157.413 95.73 157.992 95.674C158.57 95.618 159.266 95.59 160.078 95.59ZM165.697 100.154C165.062 100.154 164.512 100 164.045 99.692C163.588 99.384 163.238 98.9453 162.995 98.376C162.752 97.7973 162.631 97.1067 162.631 96.304C162.631 95.0533 162.906 94.0967 163.457 93.434C164.008 92.7713 164.754 92.44 165.697 92.44C166.565 92.44 167.251 92.776 167.755 93.448C168.259 94.1107 168.511 95.0627 168.511 96.304C168.511 97.0973 168.394 97.7833 168.161 98.362C167.937 98.9407 167.615 99.384 167.195 99.692C166.775 100 166.276 100.154 165.697 100.154ZM165.753 99.37C166.472 99.37 167.018 99.1087 167.391 98.586C167.764 98.054 167.951 97.2933 167.951 96.304C167.951 95.324 167.76 94.568 167.377 94.036C166.994 93.4947 166.453 93.224 165.753 93.224C165.044 93.224 164.498 93.49 164.115 94.022C163.742 94.554 163.555 95.3147 163.555 96.304C163.555 97.2747 163.746 98.0307 164.129 98.572C164.521 99.104 165.062 99.37 165.753 99.37ZM167.951 100V89.92H168.861V100H167.951ZM173.681 100.154C173.047 100.154 172.496 100 172.029 99.692C171.572 99.384 171.222 98.9453 170.979 98.376C170.737 97.7973 170.615 97.1067 170.615 96.304C170.615 95.0533 170.891 94.0967 171.441 93.434C171.992 92.7713 172.739 92.44 173.681 92.44C174.549 92.44 175.235 92.776 175.739 93.448C176.243 94.1107 176.495 95.0627 176.495 96.304C176.495 97.0973 176.379 97.7833 176.145 98.362C175.921 98.9407 175.599 99.384 175.179 99.692C174.759 100 174.26 100.154 173.681 100.154ZM173.737 99.37C174.456 99.37 175.002 99.1087 175.375 98.586C175.749 98.054 175.935 97.2933 175.935 96.304C175.935 95.324 175.744 94.568 175.361 94.036C174.979 93.4947 174.437 93.224 173.737 93.224C173.028 93.224 172.482 93.49 172.099 94.022C171.726 94.554 171.539 95.3147 171.539 96.304C171.539 97.2747 171.731 98.0307 172.113 98.572C172.505 99.104 173.047 99.37 173.737 99.37ZM175.935 100V89.92H176.845V100H175.935ZM179.006 100V92.594H179.916V100H179.006ZM179.916 95.744H179.482C179.528 95.0067 179.678 94.3953 179.93 93.91C180.182 93.4153 180.504 93.0467 180.896 92.804C181.288 92.5613 181.722 92.44 182.198 92.44C182.338 92.44 182.468 92.454 182.59 92.482C182.711 92.51 182.804 92.5473 182.87 92.594V93.42C182.776 93.3827 182.664 93.3547 182.534 93.336C182.403 93.3173 182.272 93.308 182.142 93.308C181.759 93.308 181.428 93.3733 181.148 93.504C180.877 93.6347 180.648 93.8167 180.462 94.05C180.275 94.274 180.135 94.5307 180.042 94.82C179.958 95.1093 179.916 95.4173 179.916 95.744ZM189.694 95.744L189.19 96.234C189.19 95.282 188.985 94.5447 188.574 94.022C188.164 93.49 187.59 93.224 186.852 93.224C186.096 93.224 185.513 93.49 185.102 94.022C184.701 94.554 184.5 95.3147 184.5 96.304C184.5 97.2747 184.71 98.0307 185.13 98.572C185.56 99.104 186.157 99.37 186.922 99.37C187.51 99.37 188 99.2207 188.392 98.922C188.794 98.6233 189.069 98.18 189.218 97.592H190.156C189.951 98.46 189.564 99.104 188.994 99.524C188.425 99.944 187.734 100.154 186.922 100.154C186.222 100.154 185.62 100 185.116 99.692C184.622 99.384 184.239 98.9453 183.968 98.376C183.707 97.7973 183.576 97.1067 183.576 96.304C183.576 95.464 183.707 94.7593 183.968 94.19C184.239 93.6207 184.617 93.1867 185.102 92.888C185.597 92.5893 186.18 92.44 186.852 92.44C187.534 92.44 188.117 92.594 188.602 92.902C189.088 93.2007 189.461 93.63 189.722 94.19C189.984 94.7407 190.114 95.408 190.114 96.192V96.444H183.968V95.744H189.694ZM192.486 94.47C192.486 94.806 192.574 95.0627 192.752 95.24C192.929 95.4173 193.162 95.548 193.452 95.632C193.741 95.716 194.058 95.7813 194.404 95.828C194.758 95.8747 195.108 95.9353 195.454 96.01C195.799 96.0753 196.116 96.1733 196.406 96.304C196.695 96.4347 196.928 96.6307 197.106 96.892C197.283 97.144 197.372 97.4893 197.372 97.928C197.372 98.3853 197.25 98.782 197.008 99.118C196.765 99.454 196.429 99.7107 196 99.888C195.57 100.065 195.08 100.154 194.53 100.154C193.671 100.154 192.962 99.944 192.402 99.524C191.842 99.0947 191.492 98.4507 191.352 97.592H192.262C192.355 98.18 192.602 98.6327 193.004 98.95C193.405 99.2673 193.923 99.426 194.558 99.426C195.174 99.426 195.645 99.2907 195.972 99.02C196.298 98.7493 196.462 98.4087 196.462 97.998C196.462 97.662 196.373 97.4053 196.196 97.228C196.018 97.0507 195.785 96.92 195.496 96.836C195.216 96.752 194.903 96.6867 194.558 96.64C194.212 96.584 193.867 96.5233 193.522 96.458C193.176 96.3833 192.859 96.2807 192.57 96.15C192.29 96.0193 192.061 95.828 191.884 95.576C191.706 95.3147 191.618 94.9693 191.618 94.54C191.618 94.1573 191.711 93.812 191.898 93.504C192.084 93.1867 192.369 92.93 192.752 92.734C193.144 92.538 193.629 92.44 194.208 92.44C194.721 92.44 195.183 92.5287 195.594 92.706C196.004 92.8833 196.34 93.1633 196.602 93.546C196.872 93.9193 197.04 94.4047 197.106 95.002H196.196C196.102 94.3487 195.878 93.882 195.524 93.602C195.169 93.322 194.712 93.182 194.152 93.182C193.62 93.182 193.209 93.3033 192.92 93.546C192.63 93.7887 192.486 94.0967 192.486 94.47ZM199.554 94.47C199.554 94.806 199.643 95.0627 199.82 95.24C199.997 95.4173 200.231 95.548 200.52 95.632C200.809 95.716 201.127 95.7813 201.472 95.828C201.827 95.8747 202.177 95.9353 202.522 96.01C202.867 96.0753 203.185 96.1733 203.474 96.304C203.763 96.4347 203.997 96.6307 204.174 96.892C204.351 97.144 204.44 97.4893 204.44 97.928C204.44 98.3853 204.319 98.782 204.076 99.118C203.833 99.454 203.497 99.7107 203.068 99.888C202.639 100.065 202.149 100.154 201.598 100.154C200.739 100.154 200.03 99.944 199.47 99.524C198.91 99.0947 198.56 98.4507 198.42 97.592H199.33C199.423 98.18 199.671 98.6327 200.072 98.95C200.473 99.2673 200.991 99.426 201.626 99.426C202.242 99.426 202.713 99.2907 203.04 99.02C203.367 98.7493 203.53 98.4087 203.53 97.998C203.53 97.662 203.441 97.4053 203.264 97.228C203.087 97.0507 202.853 96.92 202.564 96.836C202.284 96.752 201.971 96.6867 201.626 96.64C201.281 96.584 200.935 96.5233 200.59 96.458C200.245 96.3833 199.927 96.2807 199.638 96.15C199.358 96.0193 199.129 95.828 198.952 95.576C198.775 95.3147 198.686 94.9693 198.686 94.54C198.686 94.1573 198.779 93.812 198.966 93.504C199.153 93.1867 199.437 92.93 199.82 92.734C200.212 92.538 200.697 92.44 201.276 92.44C201.789 92.44 202.251 92.5287 202.662 92.706C203.073 92.8833 203.409 93.1633 203.67 93.546C203.941 93.9193 204.109 94.4047 204.174 95.002H203.264C203.171 94.3487 202.947 93.882 202.592 93.602C202.237 93.322 201.78 93.182 201.22 93.182C200.688 93.182 200.277 93.3033 199.988 93.546C199.699 93.7887 199.554 94.0967 199.554 94.47Z" fill="black"/>
<path d="M91.3238 228V218.48H92.2618V228H91.3238ZM94.2218 227.23C95.0151 227.23 95.6965 227.071 96.2658 226.754C96.8351 226.437 97.2691 225.984 97.5678 225.396C97.8758 224.799 98.0298 224.085 98.0298 223.254C98.0298 222.405 97.8758 221.686 97.5678 221.098C97.2691 220.501 96.8351 220.043 96.2658 219.726C95.6965 219.409 95.0151 219.25 94.2218 219.25H91.9818V218.48H94.2218C95.2111 218.48 96.0605 218.671 96.7698 219.054C97.4791 219.437 98.0298 219.983 98.4218 220.692C98.8138 221.401 99.0098 222.255 99.0098 223.254C99.0098 224.243 98.8138 225.093 98.4218 225.802C98.0298 226.511 97.4791 227.057 96.7698 227.44C96.0605 227.813 95.2111 228 94.2218 228H91.9818V227.23H94.2218ZM100.905 228V220.594H101.815V228H100.905ZM100.905 219.516V217.92H101.815V219.516H100.905ZM106.628 228.154C105.993 228.154 105.442 228 104.976 227.692C104.518 227.384 104.168 226.945 103.926 226.376C103.683 225.797 103.562 225.107 103.562 224.304C103.562 223.053 103.837 222.097 104.388 221.434C104.938 220.771 105.685 220.44 106.628 220.44C107.496 220.44 108.182 220.776 108.686 221.448C109.19 222.111 109.442 223.063 109.442 224.304C109.442 225.097 109.325 225.783 109.092 226.362C108.868 226.941 108.546 227.384 108.126 227.692C107.706 228 107.206 228.154 106.628 228.154ZM106.684 227.37C107.402 227.37 107.948 227.109 108.322 226.586C108.695 226.054 108.882 225.293 108.882 224.304C108.882 223.324 108.69 222.568 108.308 222.036C107.925 221.495 107.384 221.224 106.684 221.224C105.974 221.224 105.428 221.49 105.046 222.022C104.672 222.554 104.486 223.315 104.486 224.304C104.486 225.275 104.677 226.031 105.06 226.572C105.452 227.104 105.993 227.37 106.684 227.37ZM108.882 228V217.92H109.792V228H108.882ZM111.952 228V220.594H112.862V228H111.952ZM112.862 223.576H112.4C112.447 222.904 112.596 222.335 112.848 221.868C113.1 221.401 113.431 221.047 113.842 220.804C114.262 220.561 114.738 220.44 115.27 220.44C115.802 220.44 116.25 220.543 116.614 220.748C116.978 220.944 117.253 221.238 117.44 221.63C117.636 222.013 117.734 222.484 117.734 223.044V228H116.838V223.24C116.838 222.839 116.773 222.489 116.642 222.19C116.511 221.882 116.315 221.644 116.054 221.476C115.793 221.299 115.452 221.21 115.032 221.21C114.687 221.21 114.379 221.28 114.108 221.42C113.837 221.56 113.609 221.747 113.422 221.98C113.245 222.204 113.105 222.456 113.002 222.736C112.909 223.016 112.862 223.296 112.862 223.576ZM119.291 219.642V218.48H120.467V219.222C120.467 219.698 120.425 220.095 120.341 220.412C120.257 220.729 120.131 221.047 119.963 221.364H119.431C119.515 221.14 119.58 220.944 119.627 220.776C119.683 220.599 119.725 220.421 119.753 220.244C119.781 220.067 119.795 219.866 119.795 219.642H119.291ZM123.057 225.97V218.886H123.967V225.97C123.967 226.455 124.06 226.815 124.247 227.048C124.443 227.272 124.821 227.384 125.381 227.384H125.605V228.042C125.549 228.07 125.465 228.089 125.353 228.098C125.241 228.107 125.12 228.112 124.989 228.112C124.317 228.112 123.827 227.939 123.519 227.594C123.211 227.249 123.057 226.707 123.057 225.97ZM121.937 221.322V220.594H125.619V221.322H121.937ZM129.794 228V220.594H130.704V228H129.794ZM130.704 223.744H130.27C130.316 223.007 130.466 222.395 130.718 221.91C130.97 221.415 131.292 221.047 131.684 220.804C132.076 220.561 132.51 220.44 132.986 220.44C133.126 220.44 133.256 220.454 133.378 220.482C133.499 220.51 133.592 220.547 133.658 220.594V221.42C133.564 221.383 133.452 221.355 133.322 221.336C133.191 221.317 133.06 221.308 132.93 221.308C132.547 221.308 132.216 221.373 131.936 221.504C131.665 221.635 131.436 221.817 131.25 222.05C131.063 222.274 130.923 222.531 130.83 222.82C130.746 223.109 130.704 223.417 130.704 223.744ZM140.482 223.744L139.978 224.234C139.978 223.282 139.773 222.545 139.362 222.022C138.952 221.49 138.378 221.224 137.64 221.224C136.884 221.224 136.301 221.49 135.89 222.022C135.489 222.554 135.288 223.315 135.288 224.304C135.288 225.275 135.498 226.031 135.918 226.572C136.348 227.104 136.945 227.37 137.71 227.37C138.298 227.37 138.788 227.221 139.18 226.922C139.582 226.623 139.857 226.18 140.006 225.592H140.944C140.739 226.46 140.352 227.104 139.782 227.524C139.213 227.944 138.522 228.154 137.71 228.154C137.01 228.154 136.408 228 135.904 227.692C135.41 227.384 135.027 226.945 134.756 226.376C134.495 225.797 134.364 225.107 134.364 224.304C134.364 223.464 134.495 222.759 134.756 222.19C135.027 221.621 135.405 221.187 135.89 220.888C136.385 220.589 136.968 220.44 137.64 220.44C138.322 220.44 138.905 220.594 139.39 220.902C139.876 221.201 140.249 221.63 140.51 222.19C140.772 222.741 140.902 223.408 140.902 224.192V224.444H134.756V223.744H140.482ZM148.65 223.1H147.74C147.628 222.484 147.376 222.017 146.984 221.7C146.601 221.383 146.13 221.224 145.57 221.224C144.814 221.224 144.235 221.49 143.834 222.022C143.432 222.554 143.232 223.315 143.232 224.304C143.232 225.284 143.437 226.04 143.848 226.572C144.268 227.104 144.856 227.37 145.612 227.37C146.172 227.37 146.643 227.221 147.026 226.922C147.408 226.614 147.665 226.157 147.796 225.55H148.706C148.528 226.465 148.16 227.127 147.6 227.538C147.049 227.949 146.377 228.154 145.584 228.154C144.902 228.154 144.314 228 143.82 227.692C143.334 227.384 142.961 226.945 142.7 226.376C142.438 225.797 142.308 225.107 142.308 224.304C142.308 223.464 142.438 222.759 142.7 222.19C142.961 221.621 143.334 221.187 143.82 220.888C144.314 220.589 144.898 220.44 145.57 220.44C146.111 220.44 146.596 220.543 147.026 220.748C147.455 220.944 147.81 221.243 148.09 221.644C148.379 222.036 148.566 222.521 148.65 223.1ZM156.109 223.744L155.605 224.234C155.605 223.282 155.4 222.545 154.989 222.022C154.579 221.49 154.005 221.224 153.267 221.224C152.511 221.224 151.928 221.49 151.517 222.022C151.116 222.554 150.915 223.315 150.915 224.304C150.915 225.275 151.125 226.031 151.545 226.572C151.975 227.104 152.572 227.37 153.337 227.37C153.925 227.37 154.415 227.221 154.807 226.922C155.209 226.623 155.484 226.18 155.633 225.592H156.571C156.366 226.46 155.979 227.104 155.409 227.524C154.84 227.944 154.149 228.154 153.337 228.154C152.637 228.154 152.035 228 151.531 227.692C151.037 227.384 150.654 226.945 150.383 226.376C150.122 225.797 149.991 225.107 149.991 224.304C149.991 223.464 150.122 222.759 150.383 222.19C150.654 221.621 151.032 221.187 151.517 220.888C152.012 220.589 152.595 220.44 153.267 220.44C153.949 220.44 154.532 220.594 155.017 220.902C155.503 221.201 155.876 221.63 156.137 222.19C156.399 222.741 156.529 223.408 156.529 224.192V224.444H150.383V223.744H156.109ZM158.341 228V220.594H159.251V228H158.341ZM158.341 219.516V217.92H159.251V219.516H158.341ZM163.293 228L160.479 220.594H161.459L163.699 226.642L163.965 227.468H163.811L164.063 226.642L166.303 220.594H167.213L164.399 228H163.293ZM174.129 223.744L173.625 224.234C173.625 223.282 173.42 222.545 173.009 222.022C172.598 221.49 172.024 221.224 171.287 221.224C170.531 221.224 169.948 221.49 169.537 222.022C169.136 222.554 168.935 223.315 168.935 224.304C168.935 225.275 169.145 226.031 169.565 226.572C169.994 227.104 170.592 227.37 171.357 227.37C171.945 227.37 172.435 227.221 172.827 226.922C173.228 226.623 173.504 226.18 173.653 225.592H174.591C174.386 226.46 173.998 227.104 173.429 227.524C172.86 227.944 172.169 228.154 171.357 228.154C170.657 228.154 170.055 228 169.551 227.692C169.056 227.384 168.674 226.945 168.403 226.376C168.142 225.797 168.011 225.107 168.011 224.304C168.011 223.464 168.142 222.759 168.403 222.19C168.674 221.621 169.052 221.187 169.537 220.888C170.032 220.589 170.615 220.44 171.287 220.44C171.968 220.44 172.552 220.594 173.037 220.902C173.522 221.201 173.896 221.63 174.157 222.19C174.418 222.741 174.549 223.408 174.549 224.192V224.444H168.403V223.744H174.129ZM185.181 223.1H184.271C184.159 222.484 183.907 222.017 183.515 221.7C183.132 221.383 182.661 221.224 182.101 221.224C181.345 221.224 180.766 221.49 180.365 222.022C179.964 222.554 179.763 223.315 179.763 224.304C179.763 225.284 179.968 226.04 180.379 226.572C180.799 227.104 181.387 227.37 182.143 227.37C182.703 227.37 183.174 227.221 183.557 226.922C183.94 226.614 184.196 226.157 184.327 225.55H185.237C185.06 226.465 184.691 227.127 184.131 227.538C183.58 227.949 182.908 228.154 182.115 228.154C181.434 228.154 180.846 228 180.351 227.692C179.866 227.384 179.492 226.945 179.231 226.376C178.97 225.797 178.839 225.107 178.839 224.304C178.839 223.464 178.97 222.759 179.231 222.19C179.492 221.621 179.866 221.187 180.351 220.888C180.846 220.589 181.429 220.44 182.101 220.44C182.642 220.44 183.128 220.543 183.557 220.748C183.986 220.944 184.341 221.243 184.621 221.644C184.91 222.036 185.097 222.521 185.181 223.1ZM189.827 228.154C189.136 228.154 188.543 228 188.049 227.692C187.554 227.384 187.176 226.945 186.915 226.376C186.653 225.797 186.523 225.107 186.523 224.304C186.523 223.464 186.653 222.759 186.915 222.19C187.185 221.621 187.568 221.187 188.063 220.888C188.557 220.589 189.145 220.44 189.827 220.44C190.517 220.44 191.105 220.594 191.591 220.902C192.085 221.21 192.463 221.653 192.725 222.232C192.986 222.811 193.117 223.501 193.117 224.304C193.117 225.135 192.981 225.835 192.711 226.404C192.449 226.973 192.071 227.407 191.577 227.706C191.091 228.005 190.508 228.154 189.827 228.154ZM189.827 227.37C190.592 227.37 191.175 227.104 191.577 226.572C191.987 226.04 192.193 225.284 192.193 224.304C192.193 223.324 191.987 222.568 191.577 222.036C191.166 221.495 190.583 221.224 189.827 221.224C189.061 221.224 188.473 221.49 188.063 222.022C187.652 222.554 187.447 223.315 187.447 224.304C187.447 225.275 187.652 226.031 188.063 226.572C188.483 227.104 189.071 227.37 189.827 227.37ZM197.532 228.154C196.897 228.154 196.347 228 195.88 227.692C195.423 227.384 195.073 226.945 194.83 226.376C194.587 225.797 194.466 225.107 194.466 224.304C194.466 223.053 194.741 222.097 195.292 221.434C195.843 220.771 196.589 220.44 197.532 220.44C198.4 220.44 199.086 220.776 199.59 221.448C200.094 222.111 200.346 223.063 200.346 224.304C200.346 225.097 200.229 225.783 199.996 226.362C199.772 226.941 199.45 227.384 199.03 227.692C198.61 228 198.111 228.154 197.532 228.154ZM197.588 227.37C198.307 227.37 198.853 227.109 199.226 226.586C199.599 226.054 199.786 225.293 199.786 224.304C199.786 223.324 199.595 222.568 199.212 222.036C198.829 221.495 198.288 221.224 197.588 221.224C196.879 221.224 196.333 221.49 195.95 222.022C195.577 222.554 195.39 223.315 195.39 224.304C195.39 225.275 195.581 226.031 195.964 226.572C196.356 227.104 196.897 227.37 197.588 227.37ZM199.786 228V217.92H200.696V228H199.786ZM208.568 223.744L208.064 224.234C208.064 223.282 207.859 222.545 207.448 222.022C207.038 221.49 206.464 221.224 205.726 221.224C204.97 221.224 204.387 221.49 203.976 222.022C203.575 222.554 203.374 223.315 203.374 224.304C203.374 225.275 203.584 226.031 204.004 226.572C204.434 227.104 205.031 227.37 205.796 227.37C206.384 227.37 206.874 227.221 207.266 226.922C207.668 226.623 207.943 226.18 208.092 225.592H209.03C208.825 226.46 208.438 227.104 207.868 227.524C207.299 227.944 206.608 228.154 205.796 228.154C205.096 228.154 204.494 228 203.99 227.692C203.496 227.384 203.113 226.945 202.842 226.376C202.581 225.797 202.45 225.107 202.45 224.304C202.45 223.464 202.581 222.759 202.842 222.19C203.113 221.621 203.491 221.187 203.976 220.888C204.471 220.589 205.054 220.44 205.726 220.44C206.408 220.44 206.991 220.594 207.476 220.902C207.962 221.201 208.335 221.63 208.596 222.19C208.858 222.741 208.988 223.408 208.988 224.192V224.444H202.842V223.744H208.568ZM212.326 228V226.824H213.502V228H212.326ZM216.204 220.86C216.204 221.28 216.134 221.625 215.994 221.896C215.863 222.157 215.69 222.386 215.476 222.582C215.261 222.769 215.032 222.951 214.79 223.128C214.547 223.296 214.318 223.492 214.104 223.716C213.889 223.94 213.712 224.22 213.572 224.556C213.432 224.883 213.362 225.303 213.362 225.816H212.452C212.452 225.256 212.522 224.789 212.662 224.416C212.802 224.043 212.979 223.735 213.194 223.492C213.408 223.249 213.637 223.039 213.88 222.862C214.122 222.675 214.351 222.498 214.566 222.33C214.78 222.153 214.953 221.952 215.084 221.728C215.224 221.504 215.294 221.219 215.294 220.874C215.294 220.305 215.13 219.861 214.804 219.544C214.477 219.227 213.987 219.068 213.334 219.068C212.643 219.068 212.12 219.241 211.766 219.586C211.411 219.922 211.192 220.403 211.108 221.028H210.198C210.319 220.188 210.641 219.53 211.164 219.054C211.686 218.569 212.414 218.326 213.348 218.326C213.982 218.326 214.51 218.438 214.93 218.662C215.359 218.877 215.676 219.175 215.882 219.558C216.096 219.941 216.204 220.375 216.204 220.86Z" fill="black"/>
<path d="M220.75 228V218.48H222.64V228H220.75ZM224.642 223.954H222.122V222.82H224.39C224.922 222.82 225.323 222.689 225.594 222.428C225.874 222.167 226.014 221.821 226.014 221.392C226.014 220.963 225.874 220.622 225.594 220.37C225.323 220.109 224.936 219.978 224.432 219.978H222.122V218.48H224.474C225.538 218.48 226.382 218.732 227.008 219.236C227.633 219.74 227.946 220.426 227.946 221.294C227.946 222.171 227.647 222.834 227.05 223.282C226.452 223.73 225.65 223.954 224.642 223.954ZM226.406 228L225.846 225.48C225.771 225.153 225.673 224.906 225.552 224.738C225.44 224.561 225.286 224.444 225.09 224.388C224.894 224.332 224.637 224.304 224.32 224.304H222.43V223.114H224.586C225.23 223.114 225.752 223.175 226.154 223.296C226.555 223.417 226.872 223.623 227.106 223.912C227.348 224.201 227.53 224.607 227.652 225.13L228.366 228H226.406ZM235.571 223.492L234.535 224.22C234.535 223.427 234.386 222.82 234.087 222.4C233.789 221.971 233.359 221.756 232.799 221.756C232.23 221.756 231.796 221.971 231.497 222.4C231.199 222.829 231.049 223.45 231.049 224.262C231.049 225.055 231.203 225.667 231.511 226.096C231.829 226.525 232.281 226.74 232.869 226.74C233.289 226.74 233.639 226.642 233.919 226.446C234.209 226.25 234.409 225.951 234.521 225.55H236.411C236.206 226.418 235.786 227.081 235.151 227.538C234.526 227.986 233.765 228.21 232.869 228.21C232.123 228.21 231.474 228.051 230.923 227.734C230.373 227.417 229.948 226.964 229.649 226.376C229.36 225.779 229.215 225.074 229.215 224.262C229.215 223.413 229.36 222.694 229.649 222.106C229.948 221.509 230.368 221.056 230.909 220.748C231.451 220.44 232.081 220.286 232.799 220.286C233.527 220.286 234.157 220.445 234.689 220.762C235.221 221.079 235.632 221.527 235.921 222.106C236.211 222.685 236.355 223.38 236.355 224.192V224.612H229.957V223.492H235.571ZM239.198 222.512C239.198 222.764 239.282 222.955 239.45 223.086C239.618 223.217 239.842 223.319 240.122 223.394C240.411 223.459 240.724 223.52 241.06 223.576C241.396 223.623 241.732 223.688 242.068 223.772C242.404 223.856 242.712 223.973 242.992 224.122C243.272 224.271 243.496 224.477 243.664 224.738C243.841 224.999 243.93 225.349 243.93 225.788C243.93 226.264 243.79 226.684 243.51 227.048C243.239 227.412 242.866 227.697 242.39 227.902C241.914 228.107 241.359 228.21 240.724 228.21C239.8 228.21 239.025 227.995 238.4 227.566C237.784 227.127 237.411 226.455 237.28 225.55H239.072C239.137 225.951 239.319 226.264 239.618 226.488C239.926 226.712 240.313 226.824 240.78 226.824C241.228 226.824 241.564 226.74 241.788 226.572C242.012 226.395 242.124 226.171 242.124 225.9C242.124 225.657 242.04 225.471 241.872 225.34C241.704 225.209 241.48 225.111 241.2 225.046C240.929 224.981 240.626 224.92 240.29 224.864C239.963 224.808 239.637 224.743 239.31 224.668C238.983 224.584 238.68 224.467 238.4 224.318C238.129 224.159 237.91 223.949 237.742 223.688C237.574 223.417 237.49 223.063 237.49 222.624C237.49 222.213 237.597 221.835 237.812 221.49C238.027 221.135 238.349 220.846 238.778 220.622C239.207 220.398 239.749 220.286 240.402 220.286C240.981 220.286 241.499 220.379 241.956 220.566C242.413 220.753 242.791 221.042 243.09 221.434C243.398 221.826 243.585 222.335 243.65 222.96H241.858C241.783 222.503 241.615 222.176 241.354 221.98C241.102 221.784 240.761 221.686 240.332 221.686C239.977 221.686 239.697 221.765 239.492 221.924C239.296 222.083 239.198 222.279 239.198 222.512ZM251.157 223.492L250.121 224.22C250.121 223.427 249.972 222.82 249.673 222.4C249.375 221.971 248.945 221.756 248.385 221.756C247.816 221.756 247.382 221.971 247.083 222.4C246.785 222.829 246.635 223.45 246.635 224.262C246.635 225.055 246.789 225.667 247.097 226.096C247.415 226.525 247.867 226.74 248.455 226.74C248.875 226.74 249.225 226.642 249.505 226.446C249.795 226.25 249.995 225.951 250.107 225.55H251.997C251.792 226.418 251.372 227.081 250.737 227.538C250.112 227.986 249.351 228.21 248.455 228.21C247.709 228.21 247.06 228.051 246.509 227.734C245.959 227.417 245.534 226.964 245.235 226.376C244.946 225.779 244.801 225.074 244.801 224.262C244.801 223.413 244.946 222.694 245.235 222.106C245.534 221.509 245.954 221.056 246.495 220.748C247.037 220.44 247.667 220.286 248.385 220.286C249.113 220.286 249.743 220.445 250.275 220.762C250.807 221.079 251.218 221.527 251.507 222.106C251.797 222.685 251.941 223.38 251.941 224.192V224.612H245.543V223.492H251.157ZM253.286 228V220.496H255.078V228H253.286ZM255.078 223.646H254.504C254.551 222.89 254.695 222.265 254.938 221.77C255.181 221.275 255.503 220.907 255.904 220.664C256.315 220.412 256.781 220.286 257.304 220.286C257.808 220.286 258.247 220.389 258.62 220.594C259.003 220.79 259.297 221.089 259.502 221.49C259.717 221.891 259.824 222.395 259.824 223.002V228H258.032V223.366C258.032 223.021 257.981 222.731 257.878 222.498C257.785 222.255 257.64 222.073 257.444 221.952C257.248 221.831 256.996 221.77 256.688 221.77C256.445 221.77 256.221 221.821 256.016 221.924C255.82 222.017 255.652 222.153 255.512 222.33C255.372 222.498 255.265 222.699 255.19 222.932C255.115 223.156 255.078 223.394 255.078 223.646ZM264.289 228.21C263.645 228.21 263.085 228.051 262.609 227.734C262.133 227.417 261.765 226.964 261.503 226.376C261.251 225.779 261.125 225.074 261.125 224.262C261.125 222.983 261.41 222.003 261.979 221.322C262.558 220.631 263.328 220.286 264.289 220.286C265.12 220.286 265.778 220.627 266.263 221.308C266.749 221.989 266.991 222.974 266.991 224.262C266.991 225.074 266.879 225.779 266.655 226.376C266.441 226.964 266.128 227.417 265.717 227.734C265.316 228.051 264.84 228.21 264.289 228.21ZM264.611 226.726C265.143 226.726 265.549 226.516 265.829 226.096C266.119 225.676 266.263 225.065 266.263 224.262C266.263 223.459 266.119 222.843 265.829 222.414C265.54 221.985 265.134 221.77 264.611 221.77C264.079 221.77 263.673 221.985 263.393 222.414C263.113 222.834 262.973 223.45 262.973 224.262C262.973 225.046 263.113 225.653 263.393 226.082C263.683 226.511 264.089 226.726 264.611 226.726ZM266.263 228V217.92H268.055V228H266.263Z" fill="#00A99D"/>
<rect x="41.5" y="131.5" width="55" height="55" rx="19.5" fill="#D9D9D9" stroke="#CCEFEB"/>
<rect x="115.5" y="131.5" width="55" height="55" rx="19.5" fill="#D9D9D9" stroke="#CCEFEB"/>
<rect x="189.5" y="131.5" width="55" height="55" rx="19.5" fill="#D9D9D9" stroke="#CCEFEB"/>
<rect x="263.5" y="131.5" width="55" height="55" rx="19.5" fill="#D9D9D9" stroke="#CCEFEB"/>
<g filter="url(#filter0_di_741_7721)">
<rect x="29" y="259" width="301" height="56" rx="28" fill="#00A99D" shape-rendering="crispEdges"/>
<path d="M159.98 281.62L162.796 289.268L163.196 290.724H163.052L163.452 289.268L166.268 281.62H168.428L164.332 292.5H161.804L157.692 281.62H159.98ZM175.746 287.348L174.562 288.18C174.562 287.273 174.391 286.58 174.05 286.1C173.708 285.609 173.218 285.364 172.578 285.364C171.927 285.364 171.431 285.609 171.09 286.1C170.748 286.591 170.578 287.3 170.578 288.228C170.578 289.135 170.754 289.833 171.106 290.324C171.468 290.815 171.986 291.06 172.658 291.06C173.138 291.06 173.538 290.948 173.858 290.724C174.188 290.5 174.418 290.159 174.546 289.7H176.706C176.471 290.692 175.991 291.449 175.266 291.972C174.551 292.484 173.682 292.74 172.658 292.74C171.804 292.74 171.063 292.559 170.434 292.196C169.804 291.833 169.319 291.316 168.978 290.644C168.647 289.961 168.482 289.156 168.482 288.228C168.482 287.257 168.647 286.436 168.978 285.764C169.319 285.081 169.799 284.564 170.418 284.212C171.036 283.86 171.756 283.684 172.578 283.684C173.41 283.684 174.13 283.865 174.738 284.228C175.346 284.591 175.815 285.103 176.146 285.764C176.476 286.425 176.642 287.22 176.642 288.148V288.628H169.33V287.348H175.746ZM178.178 292.5V283.924H180.226V292.5H178.178ZM180.226 287.94H179.586C179.629 286.937 179.789 286.127 180.066 285.508C180.354 284.879 180.717 284.42 181.154 284.132C181.592 283.833 182.066 283.684 182.578 283.684C182.749 283.684 182.909 283.705 183.058 283.748C183.218 283.791 183.336 283.849 183.41 283.924V285.7C183.272 285.657 183.128 285.631 182.978 285.62C182.829 285.599 182.658 285.588 182.466 285.588C182.082 285.588 181.746 285.647 181.458 285.764C181.181 285.871 180.952 286.031 180.77 286.244C180.589 286.447 180.45 286.692 180.354 286.98C180.269 287.257 180.226 287.577 180.226 287.94ZM184.491 292.5V283.924H186.539V292.5H184.491ZM184.491 282.964V280.98H186.539V282.964H184.491ZM188.653 283.652C188.653 282.681 188.866 281.956 189.293 281.476C189.719 280.985 190.338 280.74 191.149 280.74C191.415 280.74 191.639 280.761 191.821 280.804C192.013 280.847 192.162 280.895 192.269 280.948V282.276H192.109C191.533 282.276 191.154 282.393 190.973 282.628C190.791 282.852 190.701 283.193 190.701 283.652V292.5H188.653V283.652ZM187.549 285.508V283.924H192.269V285.508H187.549ZM194.105 296.26C193.892 296.26 193.684 296.233 193.481 296.18C193.289 296.137 193.145 296.1 193.049 296.068V294.5H193.529C193.753 294.5 193.956 294.479 194.137 294.436C194.318 294.404 194.484 294.324 194.633 294.196C194.782 294.079 194.932 293.897 195.081 293.652C195.23 293.407 195.385 293.081 195.545 292.676L195.753 292.148L192.377 283.924H194.569L196.473 288.9L196.921 290.516H196.713L197.177 288.9L199.001 283.924H201.097L197.321 293.348C197.097 293.903 196.873 294.367 196.649 294.74C196.436 295.113 196.206 295.412 195.961 295.636C195.726 295.86 195.454 296.02 195.145 296.116C194.846 296.212 194.5 296.26 194.105 296.26Z" fill="white"/>
</g>
<defs>
<filter id="filter0_di_741_7721" x="27" y="257" width="309" height="64" filterUnits="userSpaceOnUse" color-interpolation-filters="sRGB">
<feFlood flood-opacity="0" result="BackgroundImageFix"/>
<feColorMatrix in="SourceAlpha" type="matrix" values="0 0 0 0 0 0 0 0 0 0 0 0 0 0 0 0 0 0 127 0" result="hardAlpha"/>
<feOffset dx="2" dy="2"/>
<feGaussianBlur stdDeviation="2"/>
<feComposite in2="hardAlpha" operator="out"/>
<feColorMatrix type="matrix" values="0 0 0 0 0.541667 0 0 0 0 0.532639 0 0 0 0 0.532639 0 0 0 0.3 0"/>
<feBlend mode="normal" in2="BackgroundImageFix" result="effect1_dropShadow_741_7721"/>
<feBlend mode="normal" in="SourceGraphic" in2="effect1_dropShadow_741_7721" result="shape"/>
<feColorMatrix in="SourceAlpha" type="matrix" values="0 0 0 0 0 0 0 0 0 0 0 0 0 0 0 0 0 0 127 0" result="hardAlpha"/>
<feOffset dx="2" dy="-2"/>
<feGaussianBlur stdDeviation="2"/>
<feComposite in2="hardAlpha" operator="arithmetic" k2="-1" k3="1"/>
<feColorMatrix type="matrix" values="0 0 0 0 0.0104861 0 0 0 0 0.629167 0 0 0 0 0.585237 0 0 0 1 0"/>
<feBlend mode="normal" in2="shape" result="effect2_innerShadow_741_7721"/>
</filter>
</defs>
</svg>
