<svg width="336" height="313" viewBox="0 0 336 313" fill="none" xmlns="http://www.w3.org/2000/svg">
<rect x="26" y="12.4434" width="250" height="250" rx="125" fill="white"/>
<path d="M169.69 7.6966C168.085 9.99474 165.12 11.1024 162.305 10.2309C162.109 10.1685 161.898 10.1262 161.7 10.1082C160.862 10.0178 160.041 10.2691 159.385 10.8004C158.729 11.3317 158.324 12.0836 158.235 12.921L158.205 13.2001C158.18 13.4077 158.155 13.6153 158.113 13.8259C157.749 15.7457 156.656 17.3967 155.042 18.5038C153.425 19.5937 151.475 20.0006 149.561 19.6235L148.599 19.4315C148.426 19.4003 148.255 19.3862 148.085 19.3722C147.205 19.3423 146.369 19.6581 145.735 20.265C145.091 20.8648 144.733 21.6791 144.704 22.5588C144.689 22.9236 144.648 23.2844 144.586 23.631C144.249 25.3603 143.259 26.843 141.798 27.817C140.337 28.791 138.589 29.1444 136.859 28.8055L133.755 28.1972C132.858 28.0202 132.269 27.1438 132.445 26.2469C132.621 25.35 133.496 24.7621 134.394 24.9391L137.497 25.5475C138.35 25.7235 139.221 25.5518 139.938 25.0628C140.665 24.5809 141.151 23.841 141.326 22.9885C141.357 22.8151 141.378 22.6348 141.382 22.4574C141.429 20.6909 142.17 19.0491 143.458 17.8495C144.743 16.6327 146.425 16.0083 148.192 16.0579C148.53 16.0689 148.891 16.1111 149.238 16.1734L150.207 16.3554C151.25 16.5595 152.306 16.3374 153.189 15.7395C154.072 15.1416 154.661 14.2334 154.864 13.1904C154.88 13.0816 154.903 12.9627 154.919 12.8538L154.948 12.5747C155.128 10.8555 155.956 9.30439 157.306 8.20851C158.65 7.1227 160.343 6.61112 162.063 6.79281C162.486 6.83294 162.907 6.91742 163.311 7.04926C165.05 7.58967 166.9 6.61751 167.438 4.87906C167.486 4.7027 167.535 4.52634 167.562 4.33588L167.947 1.44069C168.069 0.535755 168.908 -0.107489 169.814 0.0150767C170.719 0.137643 171.371 0.967701 171.242 1.88272L170.857 4.77791C170.808 5.14875 170.732 5.51557 170.619 5.87133C170.376 6.54153 170.07 7.1523 169.69 7.6966Z" fill="#FFCE5C"/>
<path d="M26.5278 112.689C22.1021 112.689 18.5 109.081 18.5 104.649C18.5 100.217 22.1021 96.6101 26.5278 96.6101C30.9536 96.6101 34.5557 100.217 34.5557 104.649C34.568 109.069 30.9536 112.689 26.5278 112.689ZM26.5278 99.9218C23.9339 99.9218 21.8193 102.039 21.8193 104.637C21.8193 107.235 23.9339 109.352 26.5278 109.352C29.1218 109.352 31.2364 107.235 31.2364 104.637C31.2364 102.039 29.1218 99.9218 26.5278 99.9218Z" fill="#A9B7F4"/>
<path d="M58.8114 260.581C58.3319 260.581 57.8647 260.384 57.5328 259.99C56.9427 259.288 57.0288 258.229 57.7418 257.651L83.7432 235.798C85.0217 234.727 85.7962 233.225 85.9438 231.563C86.0913 229.901 85.5749 228.288 84.5054 227.008C83.4358 225.727 81.936 224.952 80.2763 224.804C78.6167 224.656 77.0062 225.173 75.7276 226.245L49.7263 248.097C49.0255 248.688 47.9805 248.602 47.3904 247.888C46.8003 247.186 46.8864 246.127 47.5994 245.549L73.6008 223.684C75.5555 222.046 78.0266 221.258 80.5714 221.48C83.1162 221.702 85.4151 222.908 87.0502 224.853C88.6853 226.811 89.4721 229.285 89.2508 231.834C89.0295 234.382 87.8247 236.684 85.87 238.322L59.8686 260.187C59.5613 260.458 59.1802 260.581 58.8114 260.581Z" fill="#00A99D"/>
<path d="M234.97 241.979C229.475 241.979 225 237.374 225 231.711C225 226.048 229.475 221.443 234.97 221.443C235.892 221.443 236.63 222.194 236.63 223.105C236.63 224.029 235.88 224.767 234.97 224.767C231.307 224.767 228.319 227.882 228.319 231.699C228.319 235.527 231.307 238.63 234.97 238.63C235.892 238.63 236.63 239.381 236.63 240.292C236.63 241.203 235.892 241.979 234.97 241.979Z" fill="#FFB347"/>
<path d="M126.866 78.229H126.685V78.5668H126.866V78.229Z" fill="#4F3422"/>
<path fill-rule="evenodd" clip-rule="evenodd" d="M126.233 77.4421H127.319C127.356 77.4421 127.385 77.4722 127.385 77.5086V78.2064C127.385 78.2434 127.355 78.2729 127.319 78.2729H126.233C126.196 78.2729 126.167 78.2429 126.167 78.2064V77.5086C126.167 77.4722 126.196 77.4421 126.233 77.4421Z" fill="white"/>
<path d="M127.107 78.6403H126.465C126.428 78.6403 126.399 78.6102 126.399 78.5738C126.399 78.5374 126.429 78.5073 126.465 78.5073H127.107C127.143 78.5073 127.173 78.5374 127.173 78.5738C127.173 78.6102 127.143 78.6403 127.107 78.6403Z" fill="#4F3422"/>
<path d="M126.439 78.0888C126.422 78.0888 126.405 78.0824 126.392 78.0691C126.366 78.043 126.366 78.0011 126.392 77.975L126.639 77.7278C126.665 77.7017 126.707 77.7017 126.733 77.7278L126.854 77.849L127.059 77.6431C127.085 77.617 127.127 77.617 127.153 77.6431C127.179 77.6692 127.179 77.7111 127.153 77.7372L126.901 77.9903C126.875 78.0164 126.833 78.0164 126.807 77.9903L126.686 77.8696L126.487 78.0696C126.474 78.0824 126.457 78.0888 126.439 78.0888Z" fill="#4F3422"/>
<path d="M75.2132 81.6566C86.9289 69.9408 86.9289 50.9459 75.2132 39.2302C63.4975 27.5144 44.5025 27.5144 32.7868 39.2302C21.0711 50.9459 21.0711 69.9408 32.7868 81.6566C44.5025 93.3723 63.4975 93.3723 75.2132 81.6566Z" fill="#FFB347"/>
<path fill-rule="evenodd" clip-rule="evenodd" d="M53.2584 67.122C57.1628 69.4754 60.9991 70.6124 62.7999 70.1483C67.3155 68.9843 67.7307 52.465 64.2367 45.9525C60.7428 39.4401 42.781 36.6016 41.8757 49.5048C41.5615 53.9831 43.4419 57.9797 46.2202 61.2408L41.2385 84.46H55.7091L53.2584 67.122Z" fill="#B28B67"/>
<path fill-rule="evenodd" clip-rule="evenodd" d="M45.1084 64.1455C43.2922 56.0655 38.1182 50.5576 38.9084 46.9461C39.6986 43.3347 43.1206 42.4545 43.1206 42.4545C43.1206 42.4545 44.8905 35.2946 54.5369 36.3637C64.1834 37.4329 70.0707 41.4389 67.5284 50.254C65.1912 50.254 62.3697 49.4087 58.468 50.8569C56.6111 51.5461 55.8118 55.1318 55.8118 55.1318H54.0486C54.0486 55.1318 51.4819 50.8766 48.987 52.0045C46.492 53.1324 47.8526 57.4837 47.8526 57.4837L46.9842 64.1455H45.1084Z" fill="#191847"/>
<path d="M278.88 81.9898C290.595 70.2741 290.595 51.2791 278.88 39.5634C267.164 27.8477 248.169 27.8477 236.453 39.5634C224.738 51.2791 224.738 70.2741 236.453 81.9898C248.169 93.7055 267.164 93.7055 278.88 81.9898Z" fill="#FFB347"/>
<path fill-rule="evenodd" clip-rule="evenodd" d="M264.854 66.5608C267.967 68.4374 271.026 69.344 272.462 68.9739C276.062 68.0458 276.393 54.8737 273.607 49.6808C270.821 44.488 256.499 42.2246 255.777 52.5133C255.527 56.0842 257.026 59.271 259.242 61.8713L255.269 80.3857H266.808L264.854 66.5608Z" fill="#B28B67"/>
<path fill-rule="evenodd" clip-rule="evenodd" d="M274.697 52.0124C274.582 51.3393 274.303 50.5918 274.078 49.955C273.787 49.1341 273.347 48.3939 272.863 47.6963C271.952 46.383 270.859 45.197 269.653 44.2126C267.448 42.4146 264.643 41.3775 261.883 41.7143C260.49 41.8844 259.138 42.4158 257.987 43.3003C256.947 44.0994 255.946 45.2758 254.6 45.3604C253.135 45.4522 251.791 44.159 250.616 43.3602C249.291 42.4597 247.882 41.8036 246.333 41.5485C243.739 41.1214 241.302 41.9979 239.514 44.1263C237.612 46.3912 236.229 49.7127 237.478 52.7138C237.71 53.2716 238.009 53.7419 238.438 54.1317C238.831 54.4892 239.432 54.8695 239.591 55.4406C239.76 56.0476 239.255 56.8309 239.058 57.3786C238.777 58.1635 238.547 58.9872 238.629 59.8403C238.763 61.2412 239.644 62.5785 240.573 63.4994C241.519 64.4363 242.684 64.9736 243.927 65.2213C244.758 65.3867 245.606 65.478 246.45 65.4159C246.869 65.3851 247.239 65.2687 247.645 65.1761C248.04 65.0861 248.26 65.1909 248.595 65.4074C250.151 66.4132 251.824 66.8023 253.62 66.6528C255.136 66.5265 256.884 66.1591 258.121 65.1203C259.494 63.9665 259.467 62.3756 259.144 60.6758C259.486 60.8455 260.433 60.9506 259.867 60.2742C259.643 60.0062 259.219 59.8972 258.932 59.7397C258.597 59.5562 258.256 59.319 257.996 59.0197C256.946 57.8113 258.007 55.352 259.327 54.9468C261.289 54.3447 261.728 57.1191 263.129 57.8367C263.934 58.2494 264.776 57.6854 265.379 57.1095C266.187 56.338 266.738 55.316 267.214 54.276C267.605 53.4195 267.97 52.551 268.369 51.6987C268.555 51.3007 269.201 50.1757 268.877 49.7257C270.282 49.4455 271.847 50.0294 273.057 50.7951C273.557 51.1117 273.939 51.4607 274.205 52.0196C274.263 52.1393 274.387 52.4952 274.543 52.5098C274.834 52.537 274.725 52.1815 274.697 52.0124Z" fill="#191847"/>
<path d="M54.2132 194.657C65.9289 182.941 65.9289 163.946 54.2132 152.23C42.4975 140.514 23.5025 140.514 11.7868 152.23C0.0710673 163.946 0.0710673 182.941 11.7868 194.657C23.5025 206.372 42.4975 206.372 54.2132 194.657Z" fill="#FFB347"/>
<path fill-rule="evenodd" clip-rule="evenodd" d="M41.9207 181.67C45.4442 183.793 48.9062 184.819 50.5313 184.401C54.6064 183.35 54.981 168.442 51.8279 162.565C48.6749 156.688 32.4655 154.127 31.6485 165.771C31.3649 169.812 33.0619 173.419 35.5691 176.362L31.0735 197.316H44.1323L41.9207 181.67Z" fill="#B28B67"/>
<path fill-rule="evenodd" clip-rule="evenodd" d="M53.3824 157.051C53.3824 159.957 51.104 162.332 48.2359 162.485C46.5953 162.991 44.4874 163.363 42.1497 163.519C42.3767 164.373 42.5 165.342 42.5 166.438C42.5 167.406 42.3932 168.432 42.1966 169.474C41.6896 168.871 41.0116 168.478 40.3235 168.478C38.3987 168.478 37.0588 170.061 37.0588 171.742C37.0588 173.876 38.2907 175.42 40.0889 175.543C38.4695 178.652 36.2299 180.992 33.9923 180.992C29.7424 180.992 26.7206 175.31 26.7206 169.201C26.7206 168.987 26.7248 168.773 26.7332 168.562C25.2945 169.549 23.9614 170.843 22.6187 172.147C19.7656 174.916 16.8691 177.728 12.8242 177.728C4.73129 177.728 1.51725 161.404 12.8242 161.404C20.5138 161.404 24.2963 162.525 27.5561 164.183C28.199 162.371 29.1794 160.847 30.3782 159.783C30.6665 159.458 31.1087 159.147 31.6791 158.859C32.0278 158.669 32.3887 158.513 32.7596 158.396C34.7255 157.674 37.573 157.164 40.7537 157.053C41.3477 157.033 41.931 157.026 42.5 157.034C42.5093 154.037 44.9418 151.61 47.9412 151.61C50.9463 151.61 53.3824 154.046 53.3824 157.051Z" fill="#191847"/>
<path d="M296.213 194.657C307.929 182.941 307.929 163.946 296.213 152.23C284.497 140.514 265.503 140.514 253.787 152.23C242.071 163.946 242.071 182.941 253.787 194.657C265.503 206.372 284.497 206.372 296.213 194.657Z" fill="#FFB347"/>
<path fill-rule="evenodd" clip-rule="evenodd" d="M275.17 179.056C279.155 181.458 283.07 182.618 284.908 182.145C289.517 180.957 289.941 164.096 286.375 157.449C282.809 150.803 264.476 147.906 263.552 161.075C263.231 165.646 265.151 169.725 267.986 173.053L262.902 196.752H277.671L275.17 179.056Z" fill="#B28B67"/>
<path fill-rule="evenodd" clip-rule="evenodd" d="M275.908 162.53C277.186 160.627 278.412 159.176 280.008 158.334C286.501 158.436 287.261 157.272 287.261 153.349C286.212 152.599 282.512 151.335 278.368 150.98C276.254 150.375 273.75 150.489 271.337 151.498C268.359 152.343 265.838 154.162 264.724 157.569C260.694 164.523 263.753 171.763 267.874 174.236C268.972 172.936 269.929 171.676 270.783 170.47C270.097 169.8 269.671 168.864 269.671 167.829C269.671 165.789 271.324 164.136 273.363 164.136C273.513 164.136 273.661 164.145 273.806 164.163C273.898 166.712 274.276 175.338 275.268 178.334C276.437 181.867 283.261 182.734 285.641 182.734C287.697 182.734 287.627 180.787 287.577 179.392C287.569 179.191 287.562 179.002 287.562 178.831C287.562 178.475 287.099 178.476 286.575 178.477C285.895 178.478 285.114 178.48 285.114 177.699C285.114 176.849 286.289 176.196 287.341 175.613C287.997 175.248 288.605 174.911 288.85 174.569C289.621 173.489 289.881 172.032 288.717 172.032C288.081 172.032 287.208 172.399 286.158 172.84C284.573 173.506 282.583 174.342 280.395 174.342C276.779 174.342 275.919 162.675 275.908 162.53Z" fill="#191847"/>
<path d="M276.028 132.522C271.602 132.522 268 128.915 268 124.483C268 120.051 271.602 116.443 276.028 116.443C280.454 116.443 284.056 120.051 284.056 124.483C284.068 128.902 280.454 132.522 276.028 132.522ZM276.028 119.755C273.434 119.755 271.319 121.873 271.319 124.47C271.319 127.068 273.434 129.186 276.028 129.186C278.622 129.186 280.736 127.068 280.736 124.47C280.736 121.873 278.622 119.755 276.028 119.755Z" fill="#A9B7F4"/>
<path d="M151 296.443C167.569 296.443 181 283.012 181 266.443C181 249.875 167.569 236.443 151 236.443C134.431 236.443 121 249.875 121 266.443C121 283.012 134.431 296.443 151 296.443Z" fill="#FFB347"/>
<path fill-rule="evenodd" clip-rule="evenodd" d="M154.824 271.485C158.311 273.587 161.737 274.602 163.345 274.188C167.378 273.148 167.749 258.395 164.629 252.579C161.508 246.763 145.467 244.228 144.659 255.752C144.378 259.751 146.058 263.32 148.539 266.233L144.09 286.969H157.013L154.824 271.485Z" fill="#B28B67"/>
<path fill-rule="evenodd" clip-rule="evenodd" d="M170.354 252.286C170.086 251.345 169.366 250.54 168.396 250.301C168.161 250.243 167.918 250.22 167.676 250.229C167.589 250.233 167.565 250.258 167.524 250.197C167.494 250.152 167.493 250.042 167.481 249.989C167.443 249.825 167.394 249.662 167.335 249.504C167.132 248.964 166.791 248.487 166.38 248.084C165.61 247.332 164.571 246.812 163.492 246.718C162.901 246.667 162.314 246.763 161.755 246.955C161.466 247.054 161.186 247.178 160.913 247.315C160.83 247.357 160.563 247.558 160.481 247.545C160.39 247.531 160.207 247.304 160.132 247.248C159.216 246.545 158.085 246.268 156.944 246.277C155.656 246.286 154.416 246.351 153.341 247.136C153.114 247.302 152.897 247.484 152.691 247.676C152.583 247.777 152.478 247.881 152.377 247.99C152.317 248.056 152.258 248.123 152.201 248.192C152.105 248.31 152.12 248.348 151.985 248.266C151.468 247.952 150.869 247.805 150.266 247.88C149.908 247.924 149.559 248.031 149.228 248.173C149.115 248.221 148.854 248.413 148.734 248.415C148.615 248.417 148.358 248.239 148.235 248.193C147.572 247.949 146.858 247.888 146.161 248.001C145.442 248.118 144.736 248.405 144.127 248.801C143.834 248.992 143.578 249.203 143.373 249.487C143.285 249.609 143.204 249.738 143.104 249.852C143.045 249.918 142.929 249.986 142.897 250.071C142.916 250.02 142.111 249.71 142.035 249.69C141.63 249.584 141.218 249.606 140.822 249.736C140.077 249.981 139.436 250.531 138.909 251.095C138.639 251.385 138.402 251.705 138.201 252.046C138.105 252.209 138.017 252.377 137.936 252.549C137.897 252.632 137.871 252.736 137.82 252.811C137.753 252.908 137.709 252.909 137.589 252.951C136.979 253.165 136.423 253.527 136 254.015C135.571 254.51 135.294 255.119 135.177 255.76C135.17 255.798 135.166 255.954 135.144 255.974C135.114 256.003 134.991 255.99 134.945 255.996C134.784 256.014 134.624 256.043 134.467 256.08C134.177 256.149 133.894 256.25 133.627 256.382C132.586 256.897 131.841 257.863 131.477 258.95C131.094 260.091 131.101 261.397 131.558 262.517C131.632 262.698 131.72 262.873 131.823 263.039C131.886 263.141 131.907 263.141 131.866 263.248C131.82 263.367 131.736 263.483 131.682 263.599C131.504 263.978 131.38 264.381 131.301 264.792C131.173 265.466 131.109 266.174 131.236 266.853C131.295 267.169 131.397 267.477 131.554 267.758C131.634 267.901 131.728 268.037 131.833 268.162C131.888 268.228 131.946 268.29 132.007 268.35C132.042 268.384 132.088 268.414 132.117 268.452C132.189 268.545 132.205 268.468 132.167 268.605C132.115 268.795 131.997 268.983 131.925 269.169C131.85 269.36 131.783 269.554 131.721 269.749C131.596 270.146 131.491 270.549 131.425 270.959C131.298 271.747 131.32 272.587 131.693 273.31C131.852 273.619 132.081 273.891 132.358 274.102C132.494 274.205 132.641 274.294 132.795 274.367C132.874 274.405 132.976 274.421 133.012 274.497C133.051 274.58 132.993 274.743 132.98 274.836C132.865 275.637 132.808 276.478 133.046 277.264C133.265 277.987 133.748 278.626 134.376 279.048C135.592 279.869 137.232 279.822 138.511 279.166C138.844 278.995 139.156 278.782 139.434 278.531C140.142 279.485 141.599 279.455 142.634 279.183C143.924 278.845 144.959 277.948 145.555 276.77C146.37 277.762 148.081 277.44 148.646 276.364C148.785 276.1 148.867 275.81 148.907 275.516C148.928 275.361 148.915 275.205 148.931 275.052C148.951 274.857 149.082 274.667 149.157 274.478C149.303 274.11 149.393 273.73 149.397 273.334C149.399 273.127 149.373 272.925 149.353 272.719C149.336 272.534 149.387 272.362 149.416 272.179C149.085 272.234 148.682 272.145 148.371 272.049C148.065 271.955 147.779 271.707 147.563 271.481C147.062 270.955 146.756 270.266 146.546 269.58C146.087 268.075 146.275 266.269 147.789 265.443C148.494 265.058 150.607 265.06 151.447 265.25C152.33 265.45 153.331 267.399 153.381 267.582C153.411 267.695 153.396 267.835 153.5 267.911C153.729 268.077 154.106 267.789 154.275 267.647C154.567 267.401 154.774 267.074 154.954 266.743C155.346 266.022 155.663 265.248 155.886 264.458C156.058 263.85 156.168 263.222 156.393 262.628C156.617 262.038 156.97 261.51 157.519 261.176C158.116 260.812 158.8 260.62 159.456 260.392C160.105 260.165 160.744 259.888 161.247 259.407C161.358 259.302 161.466 259.189 161.555 259.065C161.625 258.967 161.695 258.778 161.802 258.716C161.968 258.619 162.212 258.871 162.356 258.963C163.067 259.414 163.66 260.044 164.138 260.732C164.614 261.416 165.005 262.075 165.322 262.839C165.557 263.406 165.704 264.131 166.118 264.596C166.303 264.803 167.676 264.929 168.121 264.747C168.566 264.566 169.064 264.096 169.213 263.802C169.366 263.5 169.403 263.169 169.338 262.839C169.299 262.645 169.221 262.463 169.178 262.272C169.142 262.112 169.109 261.961 169.031 261.814C168.883 261.536 168.631 261.336 168.326 261.252C168.643 260.96 168.905 260.611 169.087 260.22C169.276 259.814 169.436 259.32 169.482 258.875C169.518 258.513 169.462 258.138 169.263 257.827C169.056 257.501 168.687 257.288 168.369 257.084C168.855 256.704 169.272 256.241 169.614 255.728C170.28 254.731 170.692 253.475 170.354 252.286Z" fill="#191847"/>
</svg>
